<svg width="20" height="20" viewBox="0 0 20 20" fill="none" xmlns="http://www.w3.org/2000/svg">
<path opacity="0.2" d="M1 6.2C1 5.07989 1 4.51984 1.21799 4.09202C1.40973 3.71569 1.71569 3.40973 2.09202 3.21799C2.51984 3 3.0799 3 4.2 3H15.8C16.9201 3 17.4802 3 17.908 3.21799C18.2843 3.40973 18.5903 3.71569 18.782 4.09202C19 4.51984 19 5.0799 19 6.2V13.8C19 14.9201 19 15.4802 18.782 15.908C18.5903 16.2843 18.2843 16.5903 17.908 16.782C17.4802 17 16.9201 17 15.8 17H4.2C3.07989 17 2.51984 17 2.09202 16.782C1.71569 16.5903 1.40973 16.2843 1.21799 15.908C1 15.4802 1 14.9201 1 13.8V6.2Z" fill="#6366F1"/>
<path d="M2 16L7 10M18 16L13 10M1 6L8.22496 10.8166C8.86647 11.2443 9.18723 11.4582 9.53392 11.5412C9.8403 11.6147 10.1597 11.6147 10.4661 11.5412C10.8128 11.4582 11.1335 11.2443 11.775 10.8166L19 6M4.2 17H15.8C16.9201 17 17.4802 17 17.908 16.782C18.2843 16.5903 18.5903 16.2843 18.782 15.908C19 15.4802 19 14.9201 19 13.8V6.2C19 5.0799 19 4.51984 18.782 4.09202C18.5903 3.71569 18.2843 3.40973 17.908 3.21799C17.4802 3 16.9201 3 15.8 3H4.2C3.0799 3 2.51984 3 2.09202 3.21799C1.71569 3.40973 1.40973 3.71569 1.21799 4.09202C1 4.51984 1 5.07989 1 6.2V13.8C1 14.9201 1 15.4802 1.21799 15.908C1.40973 16.2843 1.71569 16.5903 2.09202 16.782C2.51984 17 3.07989 17 4.2 17Z" stroke="#6366F1" stroke-width="2" stroke-linecap="round" stroke-linejoin="round"/>
</svg>
