<svg width="17" height="18" viewBox="0 0 17 18" fill="none" xmlns="http://www.w3.org/2000/svg">
<path d="M3.7686 7.25411V11.8034C3.7686 12.9935 3.7686 13.5886 4.00021 14.0431C4.20394 14.443 4.52902 14.7681 4.92887 14.9718C5.38343 15.2034 5.97848 15.2034 7.1686 15.2034H10.2853C11.4754 15.2034 12.0704 15.2034 12.525 14.9718C12.9248 14.7681 13.2499 14.443 13.4537 14.0431C13.6853 13.5886 13.6853 12.9935 13.6853 11.8034V3.87008M15.1019 8.82841L11.2534 4.5529C10.3781 3.58052 9.94049 3.09433 9.42509 2.91484C8.9724 2.75719 8.47971 2.75723 8.02705 2.91495C7.51168 3.09451 7.07411 3.58076 6.19899 4.55327L2.35193 8.82841" stroke="#9397BF" stroke-width="1.41667" stroke-linecap="round" stroke-linejoin="round"/>
</svg>
