<svg width="24" height="24" viewBox="0 0 24 24" fill="none" xmlns="http://www.w3.org/2000/svg">
<path fill-rule="evenodd" clip-rule="evenodd" d="M8.5 4.34998H15.5C16.5609 4.34998 17.5783 4.7714 18.3284 5.52155C19.0786 6.2717 19.5 7.28911 19.5 8.34998V15.35C19.5 16.4109 19.0786 17.4283 18.3284 18.1784C17.5783 18.9286 16.5609 19.35 15.5 19.35H8.5C7.43913 19.35 6.42172 18.9286 5.67157 18.1784C4.92142 17.4283 4.5 16.4109 4.5 15.35V8.34998C4.5 7.28911 4.92142 6.2717 5.67157 5.52155C6.42172 4.7714 7.43913 4.34998 8.5 4.34998ZM8.5 6.34998H15.5C16.0304 6.34998 16.5391 6.56072 16.9142 6.9358C17.2893 7.31087 17.5 7.81955 17.5 8.34998V15.35C17.5 15.8804 17.2893 16.3891 16.9142 16.7642C16.5391 17.1393 16.0304 17.35 15.5 17.35H8.5C7.96957 17.35 7.46089 17.1393 7.08582 16.7642C6.71074 16.3891 6.5 15.8804 6.5 15.35V8.34998C6.5 7.81955 6.71074 7.31087 7.08582 6.9358C7.46089 6.56072 7.96957 6.34998 8.5 6.34998ZM12 8.34998C12.6922 8.34998 13.369 8.55524 13.9445 8.93982C14.5201 9.32441 14.9687 9.87102 15.2336 10.5106C15.4985 11.1501 15.5678 11.8538 15.4327 12.5328C15.2977 13.2117 14.9643 13.8353 14.4748 14.3248C13.9854 14.8143 13.3617 15.1477 12.6828 15.2827C12.0039 15.4178 11.3001 15.3485 10.6606 15.0836C10.021 14.8187 9.47443 14.3701 9.08984 13.7945C8.70526 13.2189 8.5 12.5422 8.5 11.85C8.5 10.9217 8.86877 10.0315 9.52515 9.37513C10.1815 8.71875 11.0717 8.34998 12 8.34998ZM12 10.35C12.2967 10.35 12.5867 10.438 12.8334 10.6028C13.0801 10.7676 13.2723 11.0019 13.3858 11.2759C13.4993 11.55 13.5291 11.8517 13.4712 12.1426C13.4133 12.4336 13.2704 12.7009 13.0607 12.9106C12.8509 13.1204 12.5836 13.2633 12.2927 13.3212C12.0017 13.379 11.7001 13.3493 11.426 13.2358C11.1519 13.1222 10.9176 12.93 10.7528 12.6833C10.588 12.4367 10.5 12.1466 10.5 11.85C10.5 11.4522 10.658 11.0706 10.9393 10.7893C11.2206 10.508 11.6022 10.35 12 10.35Z" fill="#6366F1"/>
</svg>
