<svg width="24" height="24" viewBox="0 0 24 24" fill="none" xmlns="http://www.w3.org/2000/svg">
<path d="M14.1801 13.1829C13.4832 13.4548 12.7472 13.5968 12.0048 13.6026V13.6002C11.2866 13.6118 10.5748 13.4536 9.92136 13.1371C9.31892 12.8453 9.11486 12.6671 8.68252 12.5C8.17666 12.5 8.03157 13.4263 8.0006 14.0281C7.97828 14.465 8.58009 14.7492 8.96244 14.9358C9.34479 15.1223 9.43509 15.1767 9.64346 15.2542C9.85183 15.3316 10.1652 15.4444 10.3498 15.4987C10.058 15.7897 9.73986 16.0708 9.46419 16.3885C8.96244 16.9668 8.46112 17.4824 8.09031 18.1364C8.14081 18.4602 8.27878 18.7615 8.48749 19.0035C8.69619 19.2456 8.9667 19.4181 9.26595 19.5C9.84784 19.1614 10.3022 18.6602 10.7803 18.1588C11.4102 17.4981 12.0147 16.9258 12.0147 16.9258C12.0147 16.9258 12.6037 17.5298 13.2491 18.1834C13.754 18.6949 14.2043 19.1762 14.7989 19.5C15.0681 19.4329 15.3145 19.2873 15.5101 19.0796C15.7057 18.872 15.8427 18.6105 15.9059 18.3245C15.7082 17.722 15.3105 17.32 14.8565 16.8223C14.6174 16.5601 13.6797 15.4951 13.6797 15.4951C13.942 15.4214 14.2876 15.2802 14.4823 15.2048C14.677 15.1295 14.8213 15.0503 15.0744 14.9358C15.3275 14.8212 15.9636 14.5372 15.9922 14.0681C16.0609 12.9584 15.6591 12.5294 15.4155 12.52C14.9827 12.6937 14.6772 12.9891 14.1801 13.1829Z" fill="#6366F1"/>
<path fill-rule="evenodd" clip-rule="evenodd" d="M16 8.5C16 10.7091 14.2091 12.5 12 12.5C9.79088 12.5 8 10.7091 8 8.5C8 6.29086 9.79088 4.5 12 4.5C14.2091 4.5 16 6.29086 16 8.5ZM13.7143 8.5C13.7143 9.44678 12.9467 10.2143 12 10.2143C11.0533 10.2143 10.2857 9.44678 10.2857 8.5C10.2857 7.55322 11.0533 6.78571 12 6.78571C12.9467 6.78571 13.7143 7.55322 13.7143 8.5Z" fill="#6366F1"/>
</svg>
