<svg width="24" height="24" viewBox="0 0 24 24" fill="none" xmlns="http://www.w3.org/2000/svg">
<path opacity="0.2" d="M8.66965 11.7014C9.44762 13.2919 10.7369 14.5753 12.3309 15.346C12.4475 15.4013 12.5765 15.4252 12.7052 15.4155C12.8339 15.4058 12.9579 15.3627 13.0648 15.2905L15.4119 13.7254C15.5157 13.6562 15.6352 13.6139 15.7594 13.6025C15.8837 13.5911 16.0088 13.6109 16.1235 13.66L20.5144 15.5419C20.6636 15.6052 20.7881 15.7154 20.8693 15.8556C20.9504 15.9959 20.9838 16.1588 20.9643 16.3197C20.8255 17.4057 20.2956 18.4039 19.4739 19.1273C18.6521 19.8508 17.5948 20.2499 16.5 20.25C13.1185 20.25 9.87548 18.9067 7.48439 16.5156C5.0933 14.1245 3.75 10.8815 3.75 7.49997C3.75006 6.40513 4.14918 5.34786 4.87264 4.5261C5.5961 3.70435 6.59428 3.17448 7.68028 3.03569C7.84117 3.01622 8.00403 3.04956 8.14432 3.1307C8.28461 3.21183 8.39473 3.33636 8.4581 3.48552L10.3416 7.88032C10.3903 7.994 10.4101 8.11796 10.3994 8.24116C10.3886 8.36436 10.3475 8.48299 10.2798 8.58647L8.72011 10.9696C8.64912 11.0768 8.60716 11.2006 8.59831 11.3288C8.58947 11.4571 8.61405 11.5855 8.66965 11.7014V11.7014Z" fill="white"/>
<path fill-rule="evenodd" clip-rule="evenodd" d="M7.74161 3.53192C6.77704 3.65569 5.89056 4.12656 5.24792 4.8565C4.60484 5.58696 4.25006 6.52677 4.25 7.49997M7.74161 3.53192C7.79447 3.5258 7.84791 3.53687 7.894 3.56353C7.94045 3.59039 7.97692 3.63162 7.9979 3.68101L7.99852 3.68248L9.88201 8.07728C9.89825 8.11518 9.90486 8.1565 9.90127 8.19756C9.89767 8.23863 9.88398 8.27817 9.8614 8.31267L8.30322 10.6935C8.30294 10.694 8.30265 10.6944 8.30237 10.6948C8.18415 10.8738 8.11425 11.0804 8.0995 11.2944C8.08471 11.509 8.12582 11.7237 8.21882 11.9176L8.66965 11.7014L8.2205 11.9211C9.04767 13.6122 10.4184 14.9767 12.1133 15.7962L12.1168 15.7979C12.3119 15.8903 12.5277 15.9304 12.743 15.9141C12.9577 15.8978 13.1645 15.8261 13.3432 15.7059C13.3436 15.7056 13.3441 15.7053 13.3445 15.705L15.6893 14.1414C15.7239 14.1183 15.7637 14.1042 15.8052 14.1004C15.8466 14.0966 15.8883 14.1032 15.9265 14.1196L20.3175 16.0014L20.319 16.0021C20.3683 16.0231 20.4096 16.0595 20.4364 16.106C20.4631 16.1521 20.4742 16.2055 20.4681 16.2583C20.3443 17.2229 19.8734 18.1094 19.1435 18.752C18.413 19.3951 17.4732 19.7499 16.5 19.75C13.2511 19.75 10.1353 18.4593 7.83794 16.162C5.54063 13.8647 4.25001 10.7489 4.25 7.5M9.11986 11.4839C9.84839 12.9721 11.0548 14.173 12.5463 14.8948C12.5841 14.9124 12.6259 14.9201 12.6675 14.9169C12.7096 14.9137 12.7502 14.8996 12.7852 14.876L12.7874 14.8745L15.1345 13.3094C15.3076 13.194 15.5066 13.1237 15.7137 13.1046C15.9208 13.0856 16.1293 13.1185 16.3204 13.2005L20.7099 15.0817C20.7103 15.0818 20.7106 15.082 20.7109 15.0821C20.9594 15.1879 21.1669 15.3715 21.3021 15.6053C21.4375 15.8395 21.4932 16.1113 21.4607 16.3798L21.4602 16.3831C21.306 17.5897 20.7173 18.6988 19.8043 19.5026C18.8912 20.3064 17.7165 20.7499 16.5 20.75C12.9859 20.75 9.61569 19.354 7.13084 16.8691C4.64598 14.3843 3.25 11.0141 3.25 7.49997V7.49994C3.25006 6.28348 3.69353 5.10875 4.49735 4.19571C5.30118 3.28267 6.41025 2.69393 7.6169 2.53972L7.62021 2.5393L7.62021 2.53931C7.88872 2.50682 8.16051 2.56246 8.39464 2.69787C8.62853 2.83314 8.81218 3.04068 8.91798 3.28928C8.91808 3.28953 8.91819 3.28978 8.91829 3.29003L10.8012 7.68336C10.8823 7.87282 10.9154 8.07942 10.8975 8.28476C10.8795 8.4901 10.811 8.68781 10.6981 8.86028L9.13847 11.2434L9.137 11.2456C9.11376 11.2807 9.10002 11.3212 9.09713 11.3632C9.09427 11.4047 9.1021 11.4463 9.11986 11.4839Z" fill="white"/>
<path fill-rule="evenodd" clip-rule="evenodd" d="M14.4626 3.62015C14.5343 3.35348 14.8086 3.19544 15.0753 3.26716C16.4313 3.63185 17.6677 4.34646 18.6607 5.33939C19.6536 6.33232 20.3682 7.56873 20.7329 8.92477C20.8046 9.19143 20.6466 9.46575 20.3799 9.53747C20.1132 9.60918 19.8389 9.45115 19.7672 9.18448C19.448 7.99765 18.8226 6.91553 17.9536 6.0465C17.0845 5.17746 16.0024 4.55203 14.8156 4.23285C14.5489 4.16113 14.3909 3.88681 14.4626 3.62015Z" fill="white"/>
<path fill-rule="evenodd" clip-rule="evenodd" d="M13.6862 6.51858C13.7579 6.25192 14.0323 6.09388 14.2989 6.1656C15.1464 6.39351 15.9191 6.84011 16.5396 7.46065C17.1602 8.08119 17.6068 8.85389 17.8347 9.70136C17.9064 9.96803 17.7484 10.2423 17.4817 10.3141C17.215 10.3858 16.9407 10.2277 16.869 9.96107C16.6866 9.28282 16.3292 8.6644 15.8325 8.16776C15.3359 7.67112 14.7175 7.31369 14.0392 7.13128C13.7725 7.05957 13.6145 6.78525 13.6862 6.51858Z" fill="white"/>
</svg>
