<svg width="20" height="20" viewBox="0 0 20 20" fill="none" xmlns="http://www.w3.org/2000/svg">
<path d="M18 3.22222C18 10.8315 11.8315 17 4.22222 17C3.87892 17 3.53854 16.9874 3.20153 16.9628C2.81477 16.9344 2.62139 16.9203 2.44536 16.8189C2.29957 16.735 2.1613 16.5862 2.08822 16.4347C2 16.2517 2 16.0383 2 15.6115V13.1073C2 12.7484 2 12.5689 2.05907 12.4151C2.11124 12.2792 2.19599 12.1582 2.30586 12.0627C2.43025 11.9547 2.5989 11.8933 2.93619 11.7707L5.78671 10.7341C6.17913 10.5914 6.37535 10.5201 6.56151 10.5322C6.72566 10.5429 6.88363 10.5989 7.01783 10.694C7.17003 10.8019 7.27745 10.9809 7.49228 11.339L7.49229 11.339L8.22222 12.5556C10.5777 11.4888 12.4872 9.57678 13.5556 7.22222L12.339 6.49229C11.9809 6.27745 11.8019 6.17003 11.694 6.01783C11.5989 5.88363 11.5429 5.72566 11.5322 5.56151C11.5201 5.37535 11.5914 5.17913 11.7341 4.78671L12.7707 1.93619C12.8933 1.5989 12.9547 1.43025 13.0627 1.30586C13.1582 1.19599 13.2792 1.11124 13.4151 1.05907C13.5689 1 13.7484 1 14.1073 1H16.6115C17.0383 1 17.2517 1 17.4347 1.08822C17.5862 1.1613 17.735 1.29957 17.8189 1.44536C17.9203 1.62139 17.9344 1.81477 17.9628 2.20153C17.9874 2.53854 18 2.87892 18 3.22222Z" fill="#6366F1"/>
</svg>
