<svg width="24" height="24" viewBox="0 0 24 24" fill="none" xmlns="http://www.w3.org/2000/svg">
<path opacity="0.2" d="M18.3203 10.5C18.3203 14.6421 14.9624 18 10.8203 18C6.67818 18 3.32031 14.6421 3.32031 10.5C3.32031 6.35786 6.67818 3 10.8203 3C14.9624 3 18.3203 6.35786 18.3203 10.5Z" fill="#6366F1"/>
<path d="M17.8364 14.9438C17.5617 15.3734 17.5874 15.9445 17.948 16.305L20.6585 19.0149C21.024 19.3803 21.024 19.9728 20.6586 20.3383V20.3383C20.2931 20.7037 19.7006 20.7037 19.3352 20.3382L16.6253 17.6277C16.2648 17.2671 15.6937 17.2414 15.2641 17.5161C13.9181 18.3766 12.3481 18.838 10.7382 18.8357C6.09151 18.8357 2.32031 15.0645 2.32031 10.4178C2.32031 5.77119 6.09151 2 10.7382 2C15.3848 2 19.156 5.77119 19.156 10.4178C19.1583 12.0278 18.6969 13.5978 17.8364 14.9438ZM15.4381 14.9775C16.6251 13.7568 17.288 12.1205 17.2854 10.4178C17.2854 6.80004 14.355 3.87063 10.7382 3.87063C7.12035 3.87063 4.19094 6.80004 4.19094 10.4178C4.19094 14.0347 7.12035 16.965 10.7382 16.965C12.4408 16.9677 14.0771 16.3048 15.2978 15.1178L15.4381 14.9775Z" fill="#6366F1"/>
</svg>
