<svg width="24" height="24" viewBox="0 0 24 24" fill="none" xmlns="http://www.w3.org/2000/svg">
<path fill-rule="evenodd" clip-rule="evenodd" d="M17.341 17.4628C17.3212 17.677 17.2381 17.8804 17.1025 18.0467C16.9669 18.213 16.785 18.3347 16.5801 18.3958C16.3752 18.457 16.1568 18.4549 15.9531 18.39C15.7493 18.3252 15.5695 18.2002 15.4368 18.0315C14.2709 17.0988 12.4525 15.7546 12.4525 15.7546C12.4525 15.7546 11.1367 18.0886 10.9014 18.3276C10.8237 18.3934 10.7332 18.4421 10.6357 18.4707C10.5382 18.4992 10.4359 18.507 10.3352 18.4936C10.2346 18.4801 10.1378 18.4456 10.0511 18.3924C9.96439 18.3392 9.88969 18.2684 9.8317 18.1844C9.8197 18.1477 9.8055 18.1116 9.78901 18.0766L10.527 14.3589L15.79 9.1537L8.61224 13.2775C8.61224 13.2775 5.37111 12.3018 4.88975 12.1111C4.76558 12.0428 4.66318 11.9405 4.59438 11.8161C4.52559 11.6916 4.49332 11.55 4.50115 11.4078C4.50899 11.2655 4.55661 11.1284 4.63865 11.0124C4.72069 10.8963 4.83379 10.806 4.9647 10.752C5.6493 10.4009 17.7261 5.75681 18.1326 5.63726C18.5389 5.51771 19.6087 5.20645 19.491 6.25438C19.3734 7.30231 17.4586 16.8866 17.341 17.4628Z" fill="#6366F1"/>
</svg>
