<svg width="23" height="23" viewBox="0 0 23 23" fill="none" xmlns="http://www.w3.org/2000/svg">
<g clip-path="url(#clip0_2961_1817)">
<path d="M17.0556 17.125H17.0667M17.5 13.75H18.1667C19.2021 13.75 19.7198 13.75 20.1282 13.9213C20.6727 14.1496 21.1053 14.5876 21.3308 15.139C21.5 15.5524 21.5 16.0766 21.5 17.125C21.5 18.1734 21.5 18.6976 21.3308 19.111C21.1053 19.6624 20.6727 20.1004 20.1282 20.3287C19.7198 20.5 19.2021 20.5 18.1667 20.5H4.83333C3.79791 20.5 3.28019 20.5 2.87181 20.3287C2.32731 20.1004 1.8947 19.6624 1.66916 19.111C1.5 18.6976 1.5 18.1734 1.5 17.125C1.5 16.0766 1.5 15.5524 1.66916 15.139C1.8947 14.5876 2.32731 14.1496 2.87181 13.9213C3.28019 13.75 3.79791 13.75 4.83333 13.75H5.5M11.5 14.875V2.5M11.5 14.875L8.16667 11.5M11.5 14.875L14.8333 11.5" stroke="#fff" stroke-width="2" stroke-linecap="round" stroke-linejoin="round"/>
</g>
<defs>
<clipPath id="clip0_2961_1817">
<rect width="22" height="22" fill="white" transform="translate(0.5 0.5)"/>
</clipPath>
</defs>
</svg>
