<svg width="19" height="19" viewBox="0 0 19 19" fill="none" xmlns="http://www.w3.org/2000/svg">
  <path d="M5 3.73478V15.2652C5 16.1237 5 16.5529 5.18612 16.7516C5.34761 16.9241 5.58987 17.0156 5.83776 16.9978C6.12346 16.9773 6.45623 16.6738 7.12177 16.0668L13.4429 10.3016C13.7505 10.021 13.9043 9.88071 13.962 9.71894C14.0127 9.57664 14.0127 9.42336 13.962 9.28106C13.9043 9.11929 13.7505 8.979 13.4429 8.69843L7.12177 2.93321C6.45623 2.32621 6.12346 2.0227 5.83776 2.00219C5.58987 1.98439 5.34761 2.07591 5.18612 2.24837C5 2.44712 5 2.87634 5 3.73478Z" fill="white" fill-opacity="0.2" />
  <path d="M5 3.73478V15.2652C5 16.1237 5 16.5529 5.18612 16.7516C5.34761 16.9241 5.58987 17.0156 5.83776 16.9978C6.12346 16.9773 6.45623 16.6738 7.12177 16.0668L13.4429 10.3016C13.7505 10.021 13.9043 9.88071 13.962 9.71894C14.0127 9.57664 14.0127 9.42336 13.962 9.28106C13.9043 9.11929 13.7505 8.979 13.4429 8.69843L7.12177 2.93321C6.45623 2.32621 6.12346 2.0227 5.83776 2.00219C5.58987 1.98439 5.34761 2.07591 5.18612 2.24837C5 2.44712 5 2.87634 5 3.73478Z" fill="white" stroke="white" stroke-width="1.5" stroke-linecap="round" stroke-linejoin="round" />
</svg>