<svg width="24" height="24" viewBox="0 0 24 24" fill="none" xmlns="http://www.w3.org/2000/svg">
<path fill-rule="evenodd" clip-rule="evenodd" d="M13.7415 7.45273V11.4283C13.7372 11.494 13.7483 11.5598 13.7739 11.6201C13.7994 11.6805 13.8387 11.7338 13.8885 11.7755C13.9383 11.8173 13.9971 11.8464 14.06 11.8603C14.123 11.8742 14.1882 11.8726 14.2504 11.8556C14.6089 11.8312 15.419 8.43775 15.7787 7.70536C15.9697 7.28811 16.2763 6.93722 16.6604 6.69593C16.7818 6.58443 16.9362 6.51776 17.0989 6.5067H20.5376C20.6305 6.52266 20.7178 6.56252 20.7913 6.62248C20.865 6.68243 20.9224 6.76051 20.9581 6.84941C20.994 6.9383 21.0072 7.03507 20.9963 7.13058C20.9855 7.22609 20.9509 7.31723 20.8961 7.39536C20.6273 8.00568 18.3212 11.8018 18.2017 11.9556C18.058 12.1541 17.961 12.3839 17.9185 12.627C17.9658 12.9138 18.0956 13.1799 18.2914 13.3911C18.5304 13.6682 20.4612 15.8397 20.6416 16.0216C20.8115 16.2217 20.925 16.4651 20.9702 16.7259C20.9272 16.948 20.8063 17.1465 20.6304 17.2842C20.4545 17.4219 20.2355 17.4894 20.0143 17.4741C19.2664 17.4741 17.4263 17.4741 17.216 17.4741C16.7957 17.3239 16.409 17.0894 16.0786 16.7845C15.8098 16.5403 14.8132 15.3783 14.6639 15.2257C14.6133 15.1636 14.5487 15.115 14.4756 15.0842C14.4026 15.0533 14.3232 15.0412 14.2445 15.0487C14.0652 15.0487 13.7247 15.0671 13.7402 15.7616C13.7827 16.244 13.6837 16.7283 13.4559 17.1531C13.3392 17.2674 13.201 17.3561 13.0496 17.4139C12.8981 17.4716 12.7367 17.4971 12.5753 17.4888C11.3532 17.5645 10.1377 17.2547 9.0936 16.6014C7.21293 15.4076 5.07179 12.2205 4.0753 10.1881C3.48091 9.17851 3.11365 8.04658 3 6.87414C3.05974 6.65931 3.05968 6.50789 3.26997 6.50789C3.48026 6.50789 6.12446 6.50789 6.37657 6.50789C6.55117 6.59676 6.69685 6.73543 6.79597 6.90707C6.88559 7.02914 7.56897 9.11884 7.77807 9.48625C7.98716 9.85367 9.01829 11.8665 9.57746 11.8665C9.76313 11.8293 9.92687 11.7186 10.033 11.5585C10.139 11.3985 10.1789 11.202 10.1438 11.0121C10.1438 10.5238 10.1438 8.59642 10.1438 8.35107C9.91652 7.80983 9.49991 7.37461 8.9753 7.13043C9.10595 6.95315 9.27259 6.80687 9.46377 6.70152C9.65495 6.59618 9.86615 6.53426 10.0829 6.52011C10.7998 6.48959 12.598 6.48965 12.9863 6.54946C13.1936 6.59071 13.3811 6.70244 13.5182 6.86647C13.6553 7.0305 13.734 7.23715 13.7415 7.45273Z" fill="#6366F1"/>
</svg>
