<svg width="24" height="24" viewBox="0 0 24 24" fill="none" xmlns="http://www.w3.org/2000/svg">
<path fill-rule="evenodd" clip-rule="evenodd" d="M12.0003 19.5C10.5862 19.4964 9.20226 19.0899 8.01014 18.3278L4.5 19.5L5.67009 15.9824C4.78856 14.5731 4.39958 12.9101 4.56446 11.2552C4.72933 9.60018 5.43871 8.04706 6.58089 6.84005C7.72307 5.63304 9.23322 4.84063 10.874 4.58743C12.5148 4.33423 14.1932 4.6346 15.645 5.44132C17.0967 6.24805 18.2396 7.51532 18.894 9.04388C19.5483 10.5724 19.6769 12.2756 19.2596 13.8854C18.8423 15.4952 17.9027 16.9203 16.5886 17.9366C15.2745 18.953 13.6604 19.503 12.0003 19.5ZM13.6304 13.1241C14.1292 13.2857 14.6367 13.4196 15.1504 13.5248C15.2045 13.5328 15.2563 13.5516 15.3029 13.5801C15.3495 13.6086 15.3899 13.6463 15.4217 13.6908C15.4534 13.7353 15.4759 13.7858 15.4877 13.8393C15.4995 13.8927 15.5004 13.948 15.4904 14.0017V14.2902C15.4954 14.3932 15.4763 14.496 15.4346 14.5902C15.393 14.6845 15.3298 14.7677 15.2504 14.8333C15.0039 15.0839 14.7121 15.2852 14.3904 15.4264C13.9158 15.4829 13.4347 15.441 12.977 15.3031C12.5193 15.1652 12.095 14.9343 11.7302 14.6249C11.26 14.3089 10.8214 13.9482 10.4203 13.5479C10.021 13.144 9.65944 12.7043 9.34015 12.2344C9.03376 11.8688 8.80561 11.4441 8.66971 10.9865C8.53382 10.529 8.49316 10.0484 8.5502 9.57447C8.69134 9.254 8.89147 8.96303 9.14019 8.71685C9.20356 8.63565 9.28604 8.5715 9.38031 8.53022C9.47459 8.48894 9.57772 8.47181 9.68025 8.48038H9.97018C10.0796 8.46525 10.1905 8.49418 10.2787 8.56086C10.3668 8.62753 10.4248 8.72654 10.4402 8.83609C10.5902 9.4292 10.7002 9.858 10.8502 10.3389C10.9102 10.5393 10.8403 10.5873 10.6803 10.7076C10.5803 10.7847 10.5003 10.8408 10.4203 10.8999C10.3739 10.9202 10.3322 10.9499 10.2981 10.9873C10.2639 11.0247 10.2379 11.0689 10.2219 11.117C10.2059 11.1651 10.2 11.216 10.2049 11.2665C10.2098 11.3169 10.2253 11.3658 10.2502 11.4099C10.5056 11.9023 10.8325 12.3541 11.2202 12.7504C11.6153 13.1396 12.0672 13.4662 12.5604 13.7192C12.6045 13.7437 12.6532 13.7589 12.7034 13.7636C12.7537 13.7683 12.8044 13.7625 12.8524 13.7466C12.9003 13.7307 12.9445 13.705 12.982 13.6712C13.0195 13.6373 13.0495 13.596 13.0703 13.5499C13.1303 13.4687 13.1803 13.3926 13.2603 13.2884C13.2728 13.2524 13.2924 13.2192 13.318 13.191C13.3435 13.1627 13.3745 13.1399 13.409 13.1239C13.4436 13.108 13.481 13.0991 13.519 13.0979C13.5571 13.0967 13.5949 13.1033 13.6304 13.1171V13.1241Z" fill="#6366F1"/>
</svg>
