<svg width="24" height="24" viewBox="0 0 24 24" fill="none" xmlns="http://www.w3.org/2000/svg">
<path fill-rule="evenodd" clip-rule="evenodd" d="M16.2319 19H8.76822C7.59052 18.9505 6.48031 18.4313 5.68088 17.5564C4.88144 16.6816 4.45797 15.5223 4.5033 14.3326V9.66632C4.45854 8.47691 4.88224 7.31801 5.68159 6.44343C6.48094 5.56886 7.59081 5.04985 8.76822 5H16.2319C17.4095 5.04985 18.5194 5.56901 19.3189 6.44383C20.1183 7.31865 20.5419 8.47778 20.4967 9.66736V14.3337C20.5419 15.5232 20.1182 16.6821 19.3188 17.5568C18.5194 18.4315 17.4094 18.9505 16.2319 19ZM18.3644 9.58231C18.397 8.97658 18.1911 8.38241 17.7916 7.92946C17.3921 7.47651 16.8313 7.20155 16.2319 7.16463H8.76822C8.16873 7.20155 7.60803 7.47651 7.20851 7.92946C6.809 8.38241 6.60311 8.97658 6.63576 9.58231V14.4166C6.60311 15.0224 6.809 15.6165 7.20851 16.0695C7.60803 16.5224 8.16873 16.7974 8.76822 16.8343H16.2319C16.8313 16.7974 17.3921 16.5224 17.7916 16.0695C18.1911 15.6165 18.397 15.0224 18.3644 14.4166V9.58231ZM10.9007 9.29369L15.1656 11.9989L10.9007 14.7041V9.29369Z" fill="#6366F1"/>
</svg>
