<svg width="59" height="16" viewBox="0 0 59 16" fill="none" xmlns="http://www.w3.org/2000/svg">
<path d="M58.7071 8.7071C59.0976 8.31658 59.0976 7.68341 58.7071 7.29289L52.3431 0.928928C51.9526 0.538403 51.3195 0.538403 50.9289 0.928928C50.5384 1.31945 50.5384 1.95262 50.9289 2.34314L56.5858 8L50.9289 13.6568C50.5384 14.0474 50.5384 14.6805 50.9289 15.0711C51.3195 15.4616 51.9526 15.4616 52.3431 15.0711L58.7071 8.7071ZM8.74228e-08 9L0.966667 9L0.966666 7L-8.74228e-08 7L8.74228e-08 9ZM2.9 9L4.83333 9L4.83333 7L2.9 7L2.9 9ZM6.76667 9L8.7 9L8.7 7L6.76667 7L6.76667 9ZM10.6333 9L12.5667 9L12.5667 7L10.6333 7L10.6333 9ZM14.5 9L16.4333 9L16.4333 7L14.5 7L14.5 9ZM18.3667 9L20.3 9L20.3 7L18.3667 7L18.3667 9ZM22.2333 9L24.1667 9L24.1667 7L22.2333 7L22.2333 9ZM26.1 9L28.0333 9L28.0333 7L26.1 7L26.1 9ZM29.9667 9L31.9 9L31.9 7L29.9667 7L29.9667 9ZM33.8333 9L35.7667 9L35.7667 7L33.8333 7L33.8333 9ZM37.7 9L39.6333 9L39.6333 7L37.7 7L37.7 9ZM41.5667 9L43.5 9L43.5 7L41.5667 7L41.5667 9ZM45.4333 9L47.3667 9L47.3667 7L45.4333 7L45.4333 9ZM49.3 9L51.2333 9L51.2333 7L49.3 7L49.3 9ZM53.1667 9L55.1 9L55.1 7L53.1667 7L53.1667 9ZM57.0333 9L58 8.99999L58 6.99999L57.0333 7L57.0333 9Z" fill="#6366F1"/>
</svg>
