<svg width="73" height="315" viewBox="0 0 73 315" fill="none" xmlns="http://www.w3.org/2000/svg">
<path d="M72 1H73V0H72V1ZM72 307V308H73V307H72ZM0.292893 306.293C-0.0976311 306.683 -0.0976311 307.317 0.292893 307.707L6.65685 314.071C7.04738 314.462 7.68054 314.462 8.07107 314.071C8.46159 313.681 8.46159 313.047 8.07107 312.657L2.41421 307L8.07107 301.343C8.46159 300.953 8.46159 300.319 8.07107 299.929C7.68054 299.538 7.04738 299.538 6.65685 299.929L0.292893 306.293ZM1 2H1.98611V0H1V2ZM3.95833 2H5.93056V0H3.95833V2ZM7.90278 2H9.875V0H7.90278V2ZM11.8472 2H13.8194V0H11.8472V2ZM15.7917 2H17.7639V0H15.7917V2ZM19.7361 2H21.7083V0H19.7361V2ZM23.6806 2H25.6528V0H23.6806V2ZM27.625 2H29.5972V0H27.625V2ZM31.5694 2H33.5417V0H31.5694V2ZM35.5139 2H37.4861V0H35.5139V2ZM39.4583 2H41.4305V0H39.4583V2ZM43.4028 2H45.375V0H43.4028V2ZM47.3472 2H49.3194V0H47.3472V2ZM51.2917 2H53.2639V0H51.2917V2ZM55.2361 2H57.2083V0H55.2361V2ZM59.1805 2H61.1528V0H59.1805V2ZM63.125 2H65.0972V0H63.125V2ZM67.0694 2H69.0416V0H67.0694V2ZM71.0139 2H72V0H71.0139V2ZM71 1V1.99351H73V1H71ZM71 3.98052V5.96753H73V3.98052H71ZM71 7.95455V9.94156H73V7.95455H71ZM71 11.9286V13.9156H73V11.9286H71ZM71 15.9026V17.8896H73V15.9026H71ZM71 19.8766V21.8636H73V19.8766H71ZM71 23.8506V25.8377H73V23.8506H71ZM71 27.8247V29.8117H73V27.8247H71ZM71 31.7987V33.7857H73V31.7987H71ZM71 35.7727V37.7597H73V35.7727H71ZM71 39.7468V41.7338H73V39.7468H71ZM71 43.7208V45.7078H73V43.7208H71ZM71 47.6948V49.6818H73V47.6948H71ZM71 51.6688V53.6559H73V51.6688H71ZM71 55.6429V57.6299H73V55.6429H71ZM71 59.6169V61.6039H73V59.6169H71ZM71 63.5909V65.5779H73V63.5909H71ZM71 67.565V69.552H73V67.565H71ZM71 71.539V73.526H73V71.539H71ZM71 75.513V77.5H73V75.513H71ZM71 79.487V81.4741H73V79.487H71ZM71 83.4611V85.4481H73V83.4611H71ZM71 87.4351V89.4221H73V87.4351H71ZM71 91.4091V93.3962H73V91.4091H71ZM71 95.3832V97.3702H73V95.3832H71ZM71 99.3572V101.344H73V99.3572H71ZM71 103.331V105.318H73V103.331H71ZM71 107.305V109.292H73V107.305H71ZM71 111.279V113.266H73V111.279H71ZM71 115.253V117.24H73V115.253H71ZM71 119.227V121.214H73V119.227H71ZM71 123.201V125.188H73V123.201H71ZM71 127.175V129.162H73V127.175H71ZM71 131.149V133.136H73V131.149H71ZM71 135.123V137.11H73V135.123H71ZM71 139.097V141.085H73V139.097H71ZM71 143.072V145.059H73V143.072H71ZM71 147.046V149.033H73V147.046H71ZM71 151.02V153.007H73V151.02H71ZM71 154.994V156.981H73V154.994H71ZM71 158.968V160.955H73V158.968H71ZM71 162.942V164.929H73V162.942H71ZM71 166.916V168.903H73V166.916H71ZM71 170.89V172.877H73V170.89H71ZM71 174.864V176.851H73V174.864H71ZM71 178.838V180.825H73V178.838H71ZM71 182.812V184.799H73V182.812H71ZM71 186.786V188.773H73V186.786H71ZM71 190.76V192.747H73V190.76H71ZM71 194.734V196.721H73V194.734H71ZM71 198.708V200.695H73V198.708H71ZM71 202.682V204.669H73V202.682H71ZM71 206.656V208.643H73V206.656H71ZM71 210.63V212.617H73V210.63H71ZM71 214.604V216.591H73V214.604H71ZM71 218.578V220.565H73V218.578H71ZM71 222.552V224.539H73V222.552H71ZM71 226.526V228.513H73V226.526H71ZM71 230.5V232.487H73V230.5H71ZM71 234.474V236.461H73V234.474H71ZM71 238.448V240.435H73V238.448H71ZM71 242.422V244.409H73V242.422H71ZM71 246.396V248.383H73V246.396H71ZM71 250.37V252.357H73V250.37H71ZM71 254.344V256.331H73V254.344H71ZM71 258.318V260.305H73V258.318H71ZM71 262.292V264.279H73V262.292H71ZM71 266.266V268.253H73V266.266H71ZM71 270.24V272.227H73V270.24H71ZM71 274.214V276.201H73V274.214H71ZM71 278.188V280.175H73V278.188H71ZM71 282.162V284.149H73V282.162H71ZM71 286.136V288.123H73V286.136H71ZM71 290.11V292.097H73V290.11H71ZM71 294.084V296.071H73V294.084H71ZM71 298.058V300.045H73V298.058H71ZM71 302.032V304.019H73V302.032H71ZM71 306.006V307H73V306.006H71ZM72 306H71.0139V308H72V306ZM69.0417 306H67.0694V308H69.0417V306ZM65.0972 306H63.125V308H65.0972V306ZM61.1528 306H59.1806V308H61.1528V306ZM57.2083 306H55.2361V308H57.2083V306ZM53.2639 306H51.2917V308H53.2639V306ZM49.3194 306H47.3472V308H49.3194V306ZM45.375 306H43.4028V308H45.375V306ZM41.4306 306H39.4583V308H41.4306V306ZM37.4861 306H35.5139V308H37.4861V306ZM33.5417 306H31.5695V308H33.5417V306ZM29.5972 306H27.625V308H29.5972V306ZM25.6528 306H23.6806V308H25.6528V306ZM21.7083 306H19.7361V308H21.7083V306ZM17.7639 306H15.7917V308H17.7639V306ZM13.8195 306H11.8472V308H13.8195V306ZM9.87502 306H7.90279V308H9.87502V306ZM5.93057 306H3.95835V308H5.93057V306ZM1.98613 306H1V308H1.98613V306Z" fill="#6366F1"/>
</svg>
