<svg width="59" height="16" viewBox="0 0 59 16" fill="none" xmlns="http://www.w3.org/2000/svg">
<path d="M0.292893 7.29289C-0.0976311 7.68342 -0.0976311 8.31658 0.292893 8.70711L6.65685 15.0711C7.04738 15.4616 7.68054 15.4616 8.07107 15.0711C8.46159 14.6805 8.46159 14.0474 8.07107 13.6569L2.41421 8L8.07107 2.34315C8.46159 1.95262 8.46159 1.31946 8.07107 0.928932C7.68054 0.538407 7.04738 0.538407 6.65685 0.928932L0.292893 7.29289ZM1 9L1.96667 9L1.96667 7L1 7L1 9ZM3.9 9L5.83333 9L5.83333 7L3.9 7L3.9 9ZM7.76667 9L9.7 9L9.7 7L7.76667 7L7.76667 9ZM11.6333 9L13.5667 9L13.5667 7L11.6333 7L11.6333 9ZM15.5 9L17.4333 9L17.4333 7L15.5 7L15.5 9ZM19.3667 9L21.3 9L21.3 7L19.3667 7L19.3667 9ZM23.2333 9L25.1667 9L25.1667 7L23.2333 7L23.2333 9ZM27.1 9L29.0333 9L29.0333 7L27.1 7L27.1 9ZM30.9667 9L32.9 9L32.9 7L30.9667 7L30.9667 9ZM34.8333 9L36.7667 9L36.7667 7L34.8333 7L34.8333 9ZM38.7 9L40.6333 9L40.6333 7L38.7 7L38.7 9ZM42.5667 9L44.5 9L44.5 7L42.5667 7L42.5667 9ZM46.4333 9L48.3667 9L48.3667 7L46.4333 7L46.4333 9ZM50.3 9L52.2333 9L52.2333 7L50.3 7L50.3 9ZM54.1667 9L56.1 9L56.1 7L54.1667 7L54.1667 9ZM58.0333 9L59 8.99999L59 6.99999L58.0333 7L58.0333 9Z" fill="#6366F1"/>
</svg>
