<svg width="26" height="26" viewBox="0 0 26 26" fill="none" xmlns="http://www.w3.org/2000/svg">
<path d="M14.2474 13L17.739 9.50842C17.9047 9.343 17.9979 9.11853 17.9981 8.88439C17.9983 8.65025 17.9055 8.42562 17.7401 8.25991C17.5747 8.0942 17.3502 8.00099 17.1161 8.00078C16.8819 8.00057 16.6573 8.09339 16.4916 8.2588L13 11.7504L9.50842 8.2588C9.34271 8.09309 9.11796 8 8.88361 8C8.64926 8 8.42451 8.09309 8.2588 8.2588C8.09309 8.42451 8 8.64926 8 8.88361C8 9.11796 8.09309 9.34271 8.2588 9.50842L11.7504 13L8.2588 16.4916C8.09309 16.6573 8 16.882 8 17.1164C8 17.3507 8.09309 17.5755 8.2588 17.7412C8.42451 17.9069 8.64926 18 8.88361 18C9.11796 18 9.34271 17.9069 9.50842 17.7412L13 14.2496L16.4916 17.7412C16.6573 17.9069 16.882 18 17.1164 18C17.3507 18 17.5755 17.9069 17.7412 17.7412C17.9069 17.5755 18 17.3507 18 17.1164C18 16.882 17.9069 16.6573 17.7412 16.4916L14.2474 13Z" fill="#383B56"/>
</svg>
