<svg width="45" height="45" viewBox="0 0 45 45" fill="none" xmlns="http://www.w3.org/2000/svg">
<path d="M27.4444 25.2222V10.8431C27.4444 6.51149 30.9267 3 35.2222 3C39.5178 3 43 6.51149 43 10.8431C43 15.1748 41.4622 19.1616 37.1667 19.1616H37.0003C36.3778 19.1616 36.0666 19.1616 35.8289 19.2827C35.6198 19.3892 35.4499 19.5592 35.3433 19.7683C35.2222 20.006 35.2222 20.3171 35.2222 20.9394V25.2222M18.5556 25.2222V10.8431C18.5556 6.51149 15.0733 3 10.7778 3C6.48223 3 3 6.51149 3 10.8431C3 15.1748 4.53779 19.1616 8.83333 19.1616H8.99971C9.62218 19.1616 9.93342 19.1616 10.1711 19.2827C10.3802 19.3892 10.5501 19.5592 10.6567 19.7683C10.7778 20.006 10.7778 20.3171 10.7778 20.9394V25.2222M9.66667 9.66667V11.8889M36.3333 9.66667V11.8889M17.8148 43H28.1852C31.6295 43 33.3517 43 34.7647 42.6214C38.599 41.594 41.594 38.599 42.6214 34.7647C43 33.3517 43 31.6295 43 28.1852C43 27.4963 43 27.1519 42.9243 26.8693C42.7188 26.1024 42.1198 25.5034 41.3529 25.2979C41.0703 25.2222 40.7259 25.2222 40.037 25.2222H5.96296C5.27409 25.2222 4.92966 25.2222 4.64707 25.2979C3.8802 25.5034 3.2812 26.1024 3.07572 26.8693C3 27.1519 3 27.4963 3 28.1852C3 31.6295 3 33.3517 3.3786 34.7647C4.40601 38.599 7.40099 41.594 11.2353 42.6214C12.6483 43 14.3705 43 17.8148 43Z" stroke="url(#paint0_linear_2915_8278)" stroke-width="3" stroke-linecap="round" stroke-linejoin="round"/>
<defs>
<linearGradient id="paint0_linear_2915_8278" x1="3.58951" y1="42.8567" x2="20.7105" y2="-4.62478" gradientUnits="userSpaceOnUse">
<stop stop-color="#6366F1"/>
<stop offset="0.5" stop-color="#8B5CF6"/>
<stop offset="1" stop-color="#D946EF"/>
</linearGradient>
</defs>
</svg>
