<svg width="35" height="35" viewBox="0 0 35 35" fill="none" xmlns="http://www.w3.org/2000/svg">
<g clip-path="url(#clip0_2915_8289)">
<path d="M26.25 19.131H33.25V29.7202C33.25 31.6697 31.683 33.25 29.75 33.25M26.25 19.131V29.7202C26.25 31.6697 27.817 33.25 29.75 33.25M26.25 19.131V6.3481C26.25 4.75019 26.25 3.95124 25.9172 3.48792C25.6268 3.08376 25.1804 2.82247 24.6883 2.76875C24.1243 2.70718 23.4365 3.10357 22.0608 3.89635L21.5142 4.21136C21.0079 4.50316 20.7547 4.64907 20.4858 4.7062C20.2479 4.75675 20.0021 4.75675 19.7642 4.7062C19.4953 4.64907 19.2421 4.50316 18.7358 4.21136L15.3892 2.28275C14.8828 1.99095 14.6297 1.84505 14.3608 1.78792C14.1229 1.73736 13.8771 1.73736 13.6392 1.78792C13.3703 1.84505 13.1172 1.99095 12.6108 2.28275L9.26419 4.21136C8.75784 4.50316 8.50467 4.64907 8.2358 4.7062C7.99788 4.75675 7.75212 4.75675 7.5142 4.7062C7.24533 4.64907 6.99216 4.50316 6.48581 4.21136L5.93919 3.89635C4.56351 3.10357 3.87567 2.70718 3.31165 2.76875C2.81965 2.82247 2.3732 3.08376 2.08285 3.48792C1.75 3.95124 1.75 4.75019 1.75 6.3481V24.7786C1.75 27.7439 1.75 29.2265 2.32222 30.3591C2.82555 31.3553 3.6287 32.1653 4.61655 32.6729C5.73959 33.25 7.20972 33.25 10.15 33.25H29.75M8.75 19.131H12.25M8.75 12.0715H19.25M8.75 26.1905H12.25M19.25 26.1905H19.2675M19.25 19.131H19.2675" stroke="#6366F1" stroke-width="2.625" stroke-linecap="round" stroke-linejoin="round"/>
</g>
<defs>
<clipPath id="clip0_2915_8289">
<rect width="35" height="35" fill="white"/>
</clipPath>
</defs>
</svg>
