<svg width="45" height="45" viewBox="0 0 45 45" fill="none" xmlns="http://www.w3.org/2000/svg">
<path d="M15.2222 24.1111L18.5753 27.4642C19.3392 28.2281 19.7212 28.6101 20.1551 28.7381C20.5364 28.8506 20.9443 28.8321 21.3138 28.6856C21.7344 28.5187 22.0802 28.1038 22.7718 27.2738L31.8889 16.3333M32.6194 6.90789C34.2612 6.95474 35.8891 7.6047 37.1421 8.85779C38.3952 10.1109 39.0452 11.7387 39.092 13.3805C39.1384 15.0052 39.1616 15.8175 39.2093 16.0066C39.3113 16.4113 39.1927 16.125 39.4068 16.4834C39.5067 16.6508 40.0648 17.2417 41.1808 18.4232C42.3086 19.6173 43 21.2279 43 23C43 24.7721 42.3086 26.3827 41.1808 27.5768C40.0648 28.7583 39.5067 29.3492 39.4068 29.5166C39.1927 29.875 39.3113 29.5887 39.2093 29.9934C39.1616 30.1825 39.1384 30.9948 39.092 32.6195C39.0452 34.2613 38.3952 35.8891 37.1421 37.1422C35.8891 38.3953 34.2612 39.0453 32.6194 39.0921C30.9948 39.1385 30.1825 39.1616 29.9934 39.2093C29.5886 39.3114 29.8749 39.1928 29.5166 39.4068C29.3491 39.5068 28.7583 40.0649 27.5768 41.1808C26.3827 42.3086 24.7721 43 23 43C21.2279 43 19.6173 42.3086 18.4233 41.1808C17.2416 40.0648 16.6508 39.5068 16.4834 39.4068C16.125 39.1928 16.4113 39.3114 16.0066 39.2093C15.8175 39.1616 15.005 39.1384 13.3805 39.0921C11.7386 39.0453 10.1108 38.3953 8.85771 37.1422C7.60461 35.8891 6.95464 34.2613 6.90781 32.6194C6.86147 30.9948 6.8383 30.1824 6.79062 29.9934C6.68856 29.5886 6.80715 29.8749 6.59313 29.5165C6.49315 29.3491 5.93515 28.7583 4.81915 27.5767C3.6914 26.3827 3 24.7721 3 23C3 21.2279 3.6914 19.6173 4.81915 18.4233C5.93515 17.2417 6.49315 16.6509 6.59313 16.4835C6.80715 16.1251 6.68856 16.4114 6.79062 16.0066C6.8383 15.8176 6.86147 15.0052 6.90781 13.3806C6.95464 11.7387 7.60461 10.1109 8.85771 8.85779C10.1108 7.6047 11.7386 6.95473 13.3805 6.90789C15.0051 6.86154 15.8175 6.83837 16.0066 6.79069C16.4113 6.68862 16.125 6.80722 16.4834 6.59319C16.6508 6.49322 17.2417 5.93515 18.4233 4.81917C19.6173 3.6914 21.2279 3 23 3C24.7721 3 26.3827 3.69142 27.5768 4.8192C28.7584 5.9352 29.3491 6.4932 29.5166 6.59318C29.8749 6.8072 29.5886 6.68861 29.9934 6.79068C30.1825 6.83836 30.9948 6.86154 32.6194 6.90789Z" stroke="url(#paint0_linear_2915_8238)" stroke-width="3" stroke-linecap="round" stroke-linejoin="round"/>
<defs>
<linearGradient id="paint0_linear_2915_8238" x1="3.58951" y1="42.8567" x2="20.7105" y2="-4.62478" gradientUnits="userSpaceOnUse">
<stop stop-color="#6366F1"/>
<stop offset="0.5" stop-color="#8B5CF6"/>
<stop offset="1" stop-color="#D946EF"/>
</linearGradient>
</defs>
</svg>
