<svg width="45" height="45" viewBox="0 0 45 45" fill="none" xmlns="http://www.w3.org/2000/svg">
<path d="M3.06104 18.6044L11.1894 25.107C12.2723 25.9734 12.8137 26.4065 13.4166 26.7145C13.9516 26.9878 14.521 27.1876 15.1094 27.3083C15.7726 27.4444 16.466 27.4444 17.8528 27.4444H28.1472C29.534 27.4444 30.2274 27.4444 30.8906 27.3083C31.4791 27.1876 32.0484 26.9878 32.5834 26.7145C33.1863 26.4065 33.7277 25.9734 34.8106 25.107L42.939 18.6044M3.06104 18.6044C3 19.6432 3 20.9204 3 22.5556V32.3333C3 36.067 3 37.9339 3.72662 39.3599C4.36578 40.6144 5.38565 41.6342 6.64006 42.2734C8.06614 43 9.93298 43 13.6667 43H32.3333C36.067 43 37.9339 43 39.3599 42.2734C40.6144 41.6342 41.6342 40.6144 42.2734 39.3599C43 37.9339 43 36.067 43 32.3333V22.5556C43 20.9204 43 19.6432 42.939 18.6044M3.06104 18.6044C3.13937 17.2712 3.31823 16.3305 3.72662 15.529C4.36578 14.2745 5.38565 13.2547 6.64006 12.6155C8.06614 11.8889 9.93298 11.8889 13.6667 11.8889H14.1111M42.939 18.6044C42.8606 17.2712 42.6818 16.3305 42.2734 15.529C41.6342 14.2745 40.6144 13.2547 39.3599 12.6155C37.9339 11.8889 36.067 11.8889 32.3333 11.8889H31.8889M14.1111 11.8889V9.66667C14.1111 5.98477 17.0959 3 20.7778 3H25.2222C28.9041 3 31.8889 5.98477 31.8889 9.66667V11.8889M14.1111 11.8889H31.8889" stroke="url(#paint0_linear_2915_8240)" stroke-width="3" stroke-linecap="round" stroke-linejoin="round"/>
<defs>
<linearGradient id="paint0_linear_2915_8240" x1="3.58951" y1="42.8567" x2="20.7105" y2="-4.62478" gradientUnits="userSpaceOnUse">
<stop stop-color="#6366F1"/>
<stop offset="0.5" stop-color="#8B5CF6"/>
<stop offset="1" stop-color="#D946EF"/>
</linearGradient>
</defs>
</svg>
