<svg width="45" height="45" viewBox="0 0 45 45" fill="none" xmlns="http://www.w3.org/2000/svg">
<path d="M33.3333 24.5193H42V37.6298C42 40.0434 40.0599 42 37.6667 42M33.3333 24.5193V37.6298C33.3333 40.0434 35.2734 42 37.6667 42M33.3333 24.5193V8.69289C33.3333 6.71453 33.3333 5.72534 32.9212 5.15171C32.5618 4.65132 32.009 4.32782 31.3999 4.26131C30.7015 4.18507 29.8499 4.67585 28.1467 5.65739L27.4699 6.0474C26.8431 6.40867 26.5296 6.58932 26.1967 6.66005C25.9021 6.72265 25.5979 6.72265 25.3033 6.66005C24.9704 6.58932 24.6569 6.40867 24.0301 6.0474L19.8866 3.65959C19.2597 3.29832 18.9463 3.11768 18.6134 3.04694C18.3188 2.98435 18.0145 2.98435 17.72 3.04694C17.3871 3.11768 17.0736 3.29832 16.4467 3.65959L12.3033 6.0474C11.6764 6.40868 11.3629 6.58932 11.03 6.66005C10.7355 6.72265 10.4312 6.72265 10.1366 6.66005C9.80374 6.58932 9.49029 6.40868 8.86338 6.0474L8.18662 5.65739C6.4834 4.67585 5.63179 4.18507 4.93347 4.26131C4.32432 4.32782 3.77158 4.65132 3.4121 5.15171C3 5.72534 3 6.71453 3 8.69289V31.5116C3 35.1829 3 37.0185 3.70846 38.4208C4.33163 39.6542 5.32601 40.657 6.54906 41.2855C7.93949 42 9.75966 42 13.4 42H37.6667M11.6667 24.5193H16M11.6667 15.7789H24.6667M11.6667 33.2596H16M24.6667 33.2596H24.6883M24.6667 24.5193H24.6883" stroke="url(#paint0_linear_2915_8244)" stroke-width="3" stroke-linecap="round" stroke-linejoin="round"/>
<defs>
<linearGradient id="paint0_linear_2915_8244" x1="3.57477" y1="41.8602" x2="20.2677" y2="-4.43416" gradientUnits="userSpaceOnUse">
<stop stop-color="#6366F1"/>
<stop offset="0.5" stop-color="#8B5CF6"/>
<stop offset="1" stop-color="#D946EF"/>
</linearGradient>
</defs>
</svg>
