<svg width="45" height="45" viewBox="0 0 45 45" fill="none" xmlns="http://www.w3.org/2000/svg">
<g clip-path="url(#clip0_2915_8270)">
<path d="M15.6667 24.7778C15.6667 29.8097 19.7459 33.8889 24.7778 33.8889C27.2937 33.8889 29.5715 32.8691 31.2203 31.2203M15.6667 24.7778H6.55556M15.6667 24.7778C15.6667 21.2427 17.6799 18.1778 20.6225 16.6673M6.55556 24.7778C6.55556 26.0358 5.53576 27.0556 4.27778 27.0556C3.0198 27.0556 2 26.0358 2 24.7778C2 23.5198 3.0198 22.5 4.27778 22.5C5.53576 22.5 6.55556 23.5198 6.55556 24.7778ZM39.1116 10.444C38.6994 10.0318 38.4444 9.46232 38.4444 8.83333C38.4444 7.57535 39.4642 6.55556 40.7222 6.55556C41.9802 6.55556 43 7.57535 43 8.83333C43 10.0913 41.9802 11.1111 40.7222 11.1111C40.0932 11.1111 39.5238 10.8562 39.1116 10.444ZM39.1116 10.444L31.2203 18.3352M16.5128 6.3932C17.3518 6.0573 17.9444 5.23675 17.9444 4.27778C17.9444 3.0198 16.9246 2 15.6667 2C14.4087 2 13.3889 3.0198 13.3889 4.27778C13.3889 5.53576 14.4087 6.55556 15.6667 6.55556C15.9657 6.55556 16.2512 6.49794 16.5128 6.3932ZM16.5128 6.3932L20.6225 16.6673M31.2203 31.2203C32.8691 29.5715 33.8889 27.2937 33.8889 24.7778C33.8889 22.2618 32.8691 19.984 31.2203 18.3352M31.2203 31.2203L39.1116 39.1116M39.1116 39.1116C38.6994 39.5238 38.4444 40.0932 38.4444 40.7222C38.4444 41.9802 39.4642 43 40.7222 43C41.9802 43 43 41.9802 43 40.7222C43 39.4642 41.9802 38.4444 40.7222 38.4444C40.0932 38.4444 39.5238 38.6994 39.1116 39.1116ZM31.2203 18.3352C29.5715 16.6865 27.2937 15.6667 24.7778 15.6667C23.2809 15.6667 21.8684 16.0276 20.6225 16.6673" stroke="url(#paint0_linear_2915_8270)" stroke-width="3" stroke-linecap="round" stroke-linejoin="round"/>
</g>
<defs>
<linearGradient id="paint0_linear_2915_8270" x1="2.60425" y1="42.8531" x2="20.1532" y2="-5.8154" gradientUnits="userSpaceOnUse">
<stop stop-color="#6366F1"/>
<stop offset="0.5" stop-color="#8B5CF6"/>
<stop offset="1" stop-color="#D946EF"/>
</linearGradient>
<clipPath id="clip0_2915_8270">
<rect width="45" height="45" fill="white"/>
</clipPath>
</defs>
</svg>
