<svg width="35" height="35" viewBox="0 0 35 35" fill="none" xmlns="http://www.w3.org/2000/svg">
<g clip-path="url(#clip0_2910_115)">
<path d="M12.25 28L8.75 33.25M22.75 28L26.25 33.25M8.75 21H26.25M10.5 21V15.75M17.5 21V7M24.5 21V12.25M7.35 28H27.65C29.6102 28 30.5903 28 31.339 27.6185C31.9975 27.283 32.533 26.7475 32.8685 26.089C33.25 25.3403 33.25 24.3602 33.25 22.4V7.35C33.25 5.38982 33.25 4.40972 32.8685 3.66103C32.533 3.00247 31.9975 2.46703 31.339 2.13148C30.5903 1.75 29.6102 1.75 27.65 1.75H7.35C5.38982 1.75 4.40972 1.75 3.66103 2.13148C3.00247 2.46703 2.46703 3.00247 2.13148 3.66103C1.75 4.40972 1.75 5.38982 1.75 7.35V22.4C1.75 24.3602 1.75 25.3403 2.13148 26.089C2.46703 26.7475 3.00247 27.283 3.66103 27.6185C4.40972 28 5.38982 28 7.35 28Z" stroke="#6366F1" stroke-width="2.625" stroke-linecap="round" stroke-linejoin="round"/>
</g>
<defs>
<clipPath id="clip0_2910_115">
<rect width="35" height="35" fill="white"/>
</clipPath>
</defs>
</svg>
