<svg width="46" height="45" viewBox="0 0 46 45" fill="none" xmlns="http://www.w3.org/2000/svg">
<g clip-path="url(#clip0_2915_8254)">
<path d="M27.8824 37.125L32.5882 42L42 32.25M18.4706 42H9.52941C6.89387 42 5.5761 42 4.56946 41.4687C3.68399 41.0013 2.96408 40.2555 2.51291 39.3382C2 38.2954 2 36.9303 2 34.2V10.8C2 8.06974 2 6.70462 2.51291 5.6618C2.96408 4.74451 3.68399 3.99873 4.56946 3.53134C5.5761 3 6.89387 3 9.52941 3H32.1176C34.7532 3 36.071 3 37.0776 3.53134C37.9631 3.99873 38.683 4.74451 39.1341 5.6618C39.6471 6.70462 39.6471 8.06974 39.6471 10.8V22.5M9.05882 42C9.05882 41.1652 9.13984 40.3501 9.29416 39.5625C10.3842 33.9995 15.1319 29.8125 20.8235 29.8125M25.5294 17.625C25.5294 20.3174 23.4225 22.5 20.8235 22.5C18.2245 22.5 16.1176 20.3174 16.1176 17.625C16.1176 14.9326 18.2245 12.75 20.8235 12.75C23.4225 12.75 25.5294 14.9326 25.5294 17.625Z" stroke="url(#paint0_linear_2915_8254)" stroke-width="3" stroke-linecap="round" stroke-linejoin="round"/>
</g>
<defs>
<linearGradient id="paint0_linear_2915_8254" x1="2.58951" y1="41.8602" x2="18.9581" y2="-4.69866" gradientUnits="userSpaceOnUse">
<stop stop-color="#6366F1"/>
<stop offset="0.5" stop-color="#8B5CF6"/>
<stop offset="1" stop-color="#D946EF"/>
</linearGradient>
<clipPath id="clip0_2915_8254">
<rect width="45" height="45" fill="white" transform="translate(0.100098)"/>
</clipPath>
</defs>
</svg>
