<svg width="46" height="45" viewBox="0 0 46 45" fill="none" xmlns="http://www.w3.org/2000/svg">
<path d="M3 16.3333H34M25.1429 36.3333V29.6667M11.8571 36.3333H11.8793M18.5 36.3333H18.5221M18.5 29.6667H18.5221M11.8571 29.6667H11.8793M25.1429 23H25.165M18.5 23H18.5221M11.8571 23H11.8793M10.0857 43H26.9143C29.3945 43 30.6346 43 31.582 42.5156C32.4152 42.0895 33.0927 41.4096 33.5173 40.5733C34 39.6226 34 38.378 34 35.8889V10.1111C34 7.62199 34 6.37743 33.5173 5.42671C33.0927 4.59043 32.4152 3.91052 31.582 3.48442C30.6346 3 29.3945 3 26.9143 3H10.0857C7.60548 3 6.36537 3 5.41804 3.48442C4.58475 3.91052 3.90727 4.59043 3.48269 5.42671C3 6.37743 3 7.62199 3 10.1111V35.8889C3 38.378 3 39.6226 3.48269 40.5733C3.90727 41.4096 4.58475 42.0895 5.41804 42.5156C6.36537 43 7.60548 43 10.0857 43Z" stroke="url(#paint0_linear_2915_8258)" stroke-width="3" stroke-linecap="round" stroke-linejoin="round"/>
<defs>
<linearGradient id="paint0_linear_2915_8258" x1="3.45687" y1="42.8567" x2="23.9784" y2="-1.25029" gradientUnits="userSpaceOnUse">
<stop stop-color="#6366F1"/>
<stop offset="0.5" stop-color="#8B5CF6"/>
<stop offset="1" stop-color="#D946EF"/>
</linearGradient>
</defs>
</svg>
