<svg width="45" height="45" viewBox="0 0 45 45" fill="none" xmlns="http://www.w3.org/2000/svg">
<path d="M22.5 19V40M22.5 19C22.5 14.0995 22.5 11.6493 21.5312 9.77758C20.679 8.13116 19.3191 6.79258 17.6466 5.95369C15.7451 5 13.256 5 8.27778 5H6.05556C4.81099 5 4.18871 5 3.71335 5.23842C3.29522 5.44815 2.95526 5.78279 2.74221 6.1944C2.5 6.66233 2.5 7.27489 2.5 8.5V32.125C2.5 33.3501 2.5 33.9627 2.74221 34.4306C2.95526 34.8422 3.29522 35.1769 3.71335 35.3866C4.18871 35.625 4.81099 35.625 6.05556 35.625H12.6037C13.8042 35.625 14.4044 35.625 14.9847 35.7268C15.4999 35.8172 16.0024 35.967 16.482 36.1731C17.0223 36.4053 17.5217 36.733 18.5205 37.3885L22.5 40M22.5 19C22.5 14.0995 22.5 11.6493 23.4688 9.77758C24.321 8.13116 25.6809 6.79258 27.3534 5.95369C29.2549 5 31.744 5 36.7222 5H38.9444C40.189 5 40.8113 5 41.2866 5.23842C41.7048 5.44815 42.0447 5.78279 42.2578 6.1944C42.5 6.66233 42.5 7.27489 42.5 8.5V32.125C42.5 33.3501 42.5 33.9627 42.2578 34.4306C42.0447 34.8422 41.7048 35.1769 41.2866 35.3866C40.8113 35.625 40.189 35.625 38.9444 35.625H32.3963C31.1959 35.625 30.5956 35.625 30.0153 35.7268C29.5001 35.8172 28.9976 35.967 28.518 36.1731C27.9777 36.4053 27.4783 36.733 26.4795 37.3885L22.5 40" stroke="url(#paint0_linear_2915_8282)" stroke-width="3" stroke-linecap="round" stroke-linejoin="round"/>
<defs>
<linearGradient id="paint0_linear_2915_8282" x1="3.08951" y1="39.8746" x2="16.561" y2="-2.82311" gradientUnits="userSpaceOnUse">
<stop stop-color="#6366F1"/>
<stop offset="0.5" stop-color="#8B5CF6"/>
<stop offset="1" stop-color="#D946EF"/>
</linearGradient>
</defs>
</svg>
