<svg width="46" height="45" viewBox="0 0 46 45" fill="none" xmlns="http://www.w3.org/2000/svg">
<g clip-path="url(#clip0_2915_8262)">
<path d="M16.4706 30.9412V18.8824H9.23529V30.9412H16.4706ZM16.4706 30.9412H23.7059V11.6471H16.4706V30.9412ZM18.8824 40.5882H9.71765C7.01622 40.5882 5.6655 40.5882 4.63369 40.0625C3.72609 39.6001 2.98818 38.8621 2.52573 37.9545C2 36.9227 2 35.572 2 32.8706V9.71765C2 7.01622 2 5.6655 2.52573 4.63369C2.98818 3.72609 3.72609 2.98818 4.63369 2.52573C5.6655 2 7.01622 2 9.71765 2H32.8706C35.572 2 36.9227 2 37.9545 2.52573C38.8621 2.98818 39.6001 3.72609 40.0625 4.63369C40.5882 5.6655 40.5882 7.01622 40.5882 9.71765V14.3M38.1765 24.9118C38.1765 26.9097 36.5568 28.5294 34.5588 28.5294C32.5609 28.5294 30.9412 26.9097 30.9412 24.9118C30.9412 22.9138 32.5609 21.2941 34.5588 21.2941C36.5568 21.2941 38.1765 22.9138 38.1765 24.9118ZM37.1116 35.7647H32.006C29.9298 35.7647 28.0866 37.0932 27.43 39.0629L26.1176 43H43L41.6876 39.0629C41.0311 37.0932 39.1878 35.7647 37.1116 35.7647Z" stroke="url(#paint0_linear_2915_8262)" stroke-width="3" stroke-linecap="round" stroke-linejoin="round"/>
</g>
<defs>
<linearGradient id="paint0_linear_2915_8262" x1="2.60425" y1="42.8531" x2="20.1532" y2="-5.8154" gradientUnits="userSpaceOnUse">
<stop stop-color="#6366F1"/>
<stop offset="0.5" stop-color="#8B5CF6"/>
<stop offset="1" stop-color="#D946EF"/>
</linearGradient>
<clipPath id="clip0_2915_8262">
<rect width="45" height="45" fill="white" transform="translate(0.700195)"/>
</clipPath>
</defs>
</svg>
