<svg width="35" height="35" viewBox="0 0 35 35" fill="none" xmlns="http://www.w3.org/2000/svg">
<g clip-path="url(#clip0_2915_8287)">
<path d="M1.79807 14.0385L8.19912 19.1593C9.0519 19.8415 9.4783 20.1826 9.9531 20.4252C10.3743 20.6404 10.8227 20.7977 11.2861 20.8928C11.8084 21 12.3545 21 13.4466 21H21.5534C22.6455 21 23.1916 21 23.7139 20.8928C24.1773 20.7977 24.6257 20.6404 25.0469 20.4252C25.5217 20.1826 25.9481 19.8415 26.8009 19.1593L33.2019 14.0385M1.79807 14.0385C1.75 14.8565 1.75 15.8623 1.75 17.15V24.85C1.75 27.7903 1.75 29.2604 2.32222 30.3834C2.82555 31.3713 3.6287 32.1744 4.61655 32.6778C5.73959 33.25 7.20972 33.25 10.15 33.25H24.85C27.7903 33.25 29.2604 33.25 30.3834 32.6778C31.3713 32.1744 32.1744 31.3713 32.6778 30.3834C33.25 29.2604 33.25 27.7903 33.25 24.85V17.15C33.25 15.8623 33.25 14.8565 33.2019 14.0385M1.79807 14.0385C1.85976 12.9886 2.00061 12.2477 2.32222 11.6166C2.82555 10.6287 3.6287 9.82555 4.61655 9.32222C5.73959 8.75 7.20972 8.75 10.15 8.75H10.5M33.2019 14.0385C33.1402 12.9886 32.9994 12.2477 32.6778 11.6166C32.1744 10.6287 31.3713 9.82555 30.3834 9.32222C29.2604 8.75 27.7903 8.75 24.85 8.75H24.5M10.5 8.75V7C10.5 4.10051 12.8505 1.75 15.75 1.75H19.25C22.1495 1.75 24.5 4.10051 24.5 7V8.75M10.5 8.75H24.5" stroke="#6366F1" stroke-width="2.625" stroke-linecap="round" stroke-linejoin="round"/>
</g>
<defs>
<clipPath id="clip0_2915_8287">
<rect width="35" height="35" fill="white"/>
</clipPath>
</defs>
</svg>
