<svg width="45" height="45" viewBox="0 0 45 45" fill="none" xmlns="http://www.w3.org/2000/svg">
<path d="M16.3333 36.3333L11.8889 43M29.6667 36.3333L34.1111 43M11.8889 27.4444H34.1111M14.1111 27.4444V20.7778M23 27.4444V9.66667M31.8889 27.4444V16.3333M10.1111 36.3333H35.8889C38.378 36.3333 39.6226 36.3333 40.5733 35.8489C41.4096 35.4228 42.0895 34.7429 42.5156 33.9066C43 32.9559 43 31.7113 43 29.2222V10.1111C43 7.62199 43 6.37743 42.5156 5.42671C42.0895 4.59043 41.4096 3.91052 40.5733 3.48442C39.6226 3 38.378 3 35.8889 3H10.1111C7.62199 3 6.37743 3 5.42671 3.48442C4.59043 3.91052 3.91052 4.59043 3.48442 5.42671C3 6.37743 3 7.62199 3 10.1111V29.2222C3 31.7113 3 32.9559 3.48442 33.9066C3.91052 34.7429 4.59043 35.4228 5.42671 35.8489C6.37743 36.3333 7.62199 36.3333 10.1111 36.3333Z" stroke="url(#paint0_linear_2915_8242)" stroke-width="3" stroke-linecap="round" stroke-linejoin="round"/>
<defs>
<linearGradient id="paint0_linear_2915_8242" x1="3.58951" y1="42.8567" x2="20.7105" y2="-4.62478" gradientUnits="userSpaceOnUse">
<stop stop-color="#6366F1"/>
<stop offset="0.5" stop-color="#8B5CF6"/>
<stop offset="1" stop-color="#D946EF"/>
</linearGradient>
</defs>
</svg>
