<svg width="35" height="35" viewBox="0 0 35 35" fill="none" xmlns="http://www.w3.org/2000/svg">
<g clip-path="url(#clip0_2910_99)">
<path d="M11.2604 18.3468L13.9336 21.02C14.5426 21.629 14.8471 21.9335 15.1931 22.0356C15.497 22.1253 15.8222 22.1105 16.1168 21.9937C16.4521 21.8607 16.7278 21.5299 17.2791 20.8682L24.5475 12.1462M25.1299 4.63206C26.4388 4.66941 27.7365 5.18757 28.7355 6.18656C29.7344 7.18554 30.2526 8.48326 30.29 9.79214C30.3269 11.0874 30.3454 11.735 30.3834 11.8857C30.4648 12.2084 30.3702 11.9801 30.5409 12.2659C30.6206 12.3993 31.0655 12.8704 31.9552 13.8123C32.8543 14.7643 33.4055 16.0483 33.4055 17.461C33.4055 18.8738 32.8543 20.1578 31.9552 21.1098C31.0655 22.0517 30.6206 22.5228 30.5409 22.6562C30.3702 22.9419 30.4648 22.7137 30.3834 23.0364C30.3454 23.1871 30.3269 23.8347 30.29 25.1299C30.2526 26.4388 29.7344 27.7366 28.7355 28.7355C27.7365 29.7345 26.4388 30.2527 25.1299 30.29C23.8347 30.327 23.1871 30.3455 23.0363 30.3835C22.7136 30.4648 22.9419 30.3703 22.6562 30.5409C22.5227 30.6206 22.0517 31.0655 21.1097 31.9552C20.1578 32.8543 18.8738 33.4055 17.461 33.4055C16.0483 33.4055 14.7643 32.8543 13.8124 31.9552C12.8704 31.0655 12.3993 30.6206 12.2659 30.5409C11.9802 30.3703 12.2084 30.4648 11.8857 30.3835C11.735 30.3455 11.0873 30.327 9.79213 30.29C8.48323 30.2527 7.18549 29.7345 6.1865 28.7355C5.1875 27.7365 4.66933 26.4388 4.632 25.1299C4.59505 23.8347 4.57658 23.187 4.53857 23.0363C4.4572 22.7136 4.55175 22.9419 4.38113 22.6562C4.30142 22.5227 3.85657 22.0517 2.96687 21.1097C2.0678 20.1578 1.5166 18.8738 1.5166 17.461C1.5166 16.0483 2.0678 14.7643 2.96687 13.8124C3.85657 12.8704 4.30142 12.3994 4.38112 12.2659C4.55175 11.9802 4.4572 12.2085 4.53857 11.8858C4.57658 11.735 4.59505 11.0874 4.632 9.79222C4.66933 8.48331 5.1875 7.18556 6.1865 6.18656C7.18549 5.18757 8.48323 4.6694 9.79213 4.63206C11.0874 4.59511 11.735 4.57664 11.8857 4.53862C12.2084 4.45725 11.9802 4.5518 12.2659 4.38118C12.3993 4.30147 12.8704 3.85657 13.8124 2.96688C14.7643 2.0678 16.0483 1.5166 17.461 1.5166C18.8738 1.5166 20.1578 2.06781 21.1097 2.96691C22.0517 3.85661 22.5227 4.30146 22.6562 4.38117C22.9419 4.55179 22.7136 4.45724 23.0363 4.53862C23.1871 4.57663 23.8347 4.59511 25.1299 4.63206Z" stroke="#6366F1" stroke-width="3" stroke-linecap="round" stroke-linejoin="round"/>
</g>
<defs>
<clipPath id="clip0_2910_99">
<rect width="35" height="35" fill="white"/>
</clipPath>
</defs>
</svg>
