<svg width="45" height="45" viewBox="0 0 45 45" fill="none" xmlns="http://www.w3.org/2000/svg">
<path d="M22.5 23H12.9235C11.7046 23 11.0951 23 10.6295 23.2422C10.22 23.4553 9.88706 23.7952 9.6784 24.2134C9.44118 24.6887 9.44118 25.311 9.44118 26.5556V31.8889M22.5 23H32.0765C33.2954 23 33.9049 23 34.3704 23.2422C34.78 23.4553 35.1129 23.7952 35.3216 24.2134C35.5588 24.6887 35.5588 25.311 35.5588 26.5556V31.8889M22.5 23V14.1111M20.5412 14.1111H24.4588C25.6778 14.1111 26.2872 14.1111 26.7528 13.8689C27.1623 13.6559 27.4953 13.3159 27.704 12.8978C27.9412 12.4224 27.9412 11.8001 27.9412 10.5556V6.55556C27.9412 5.31099 27.9412 4.68871 27.704 4.21335C27.4953 3.79522 27.1623 3.45526 26.7528 3.24221C26.2872 3 25.6778 3 24.4588 3H20.5412C19.3222 3 18.7128 3 18.2472 3.24221C17.8377 3.45526 17.5047 3.79522 17.296 4.21335C17.0588 4.68871 17.0588 5.31099 17.0588 6.55556V10.5556C17.0588 11.8001 17.0588 12.4224 17.296 12.8978C17.5047 13.3159 17.8377 13.6559 18.2472 13.8689C18.7128 14.1111 19.3222 14.1111 20.5412 14.1111ZM7.48235 43H11.4C12.6189 43 13.2284 43 13.694 42.7578C14.1035 42.5447 14.4365 42.2048 14.6451 41.7866C14.8824 41.3113 14.8824 40.689 14.8824 39.4444V35.4444C14.8824 34.1999 14.8824 33.5776 14.6451 33.1022C14.4365 32.6841 14.1035 32.3442 13.694 32.1311C13.2284 31.8889 12.6189 31.8889 11.4 31.8889H7.48235C6.26341 31.8889 5.65395 31.8889 5.18837 32.1311C4.77884 32.3442 4.44589 32.6841 4.23722 33.1022C4 33.5776 4 34.1999 4 35.4444V39.4444C4 40.689 4 41.3113 4.23722 41.7866C4.44589 42.2048 4.77884 42.5447 5.18837 42.7578C5.65395 43 6.26341 43 7.48235 43ZM33.6 43H37.5176C38.7366 43 39.3461 43 39.8116 42.7578C40.2212 42.5447 40.5541 42.2048 40.7628 41.7866C41 41.3113 41 40.689 41 39.4444V35.4444C41 34.1999 41 33.5776 40.7628 33.1022C40.5541 32.6841 40.2212 32.3442 39.8116 32.1311C39.3461 31.8889 38.7366 31.8889 37.5176 31.8889H33.6C32.3811 31.8889 31.7716 31.8889 31.306 32.1311C30.8965 32.3442 30.5635 32.6841 30.3549 33.1022C30.1176 33.5776 30.1176 34.1999 30.1176 35.4444V39.4444C30.1176 40.689 30.1176 41.3113 30.3549 41.7866C30.5635 42.2048 30.8965 42.5447 31.306 42.7578C31.7716 43 32.3811 43 33.6 43Z" stroke="url(#paint0_linear_2915_8250)" stroke-width="3" stroke-linecap="round" stroke-linejoin="round"/>
<defs>
<linearGradient id="paint0_linear_2915_8250" x1="4.5453" y1="42.8567" x2="22.7019" y2="-3.7205" gradientUnits="userSpaceOnUse">
<stop stop-color="#6366F1"/>
<stop offset="0.5" stop-color="#8B5CF6"/>
<stop offset="1" stop-color="#D946EF"/>
</linearGradient>
</defs>
</svg>
