<svg width="45" height="45" viewBox="0 0 45 45" fill="none" xmlns="http://www.w3.org/2000/svg">
<path d="M8.16667 34.2021C4.38188 30.8237 2 25.9143 2 20.45C2 10.2603 10.2827 2 20.5 2C30.7173 2 39 10.2603 39 20.45C39 25.9143 36.6181 30.8237 32.8333 34.2021M11.8716 26.0213C10.8282 24.4174 10.2222 22.5043 10.2222 20.45C10.2222 14.7891 14.8237 10.2 20.5 10.2C26.1763 10.2 30.7778 14.7891 30.7778 20.45C30.7778 22.5017 30.1734 24.4125 29.1324 26.0152M20.5 43C18.2295 43 16.3889 41.1644 16.3889 38.9V34.8C16.3889 32.5356 18.2295 30.7 20.5 30.7C22.7705 30.7 24.6111 32.5356 24.6111 34.8V38.9C24.6111 41.1644 22.7705 43 20.5 43ZM22.5556 20.45C22.5556 21.5822 21.6353 22.5 20.5 22.5C19.3647 22.5 18.4444 21.5822 18.4444 20.45C18.4444 19.3178 19.3647 18.4 20.5 18.4C21.6353 18.4 22.5556 19.3178 22.5556 20.45Z" stroke="url(#paint0_linear_2915_8276)" stroke-width="3" stroke-linecap="round" stroke-linejoin="round"/>
<defs>
<linearGradient id="paint0_linear_2915_8276" x1="2.5453" y1="42.8531" x2="21.4946" y2="-4.5718" gradientUnits="userSpaceOnUse">
<stop stop-color="#6366F1"/>
<stop offset="0.5" stop-color="#8B5CF6"/>
<stop offset="1" stop-color="#D946EF"/>
</linearGradient>
</defs>
</svg>
