<svg width="46" height="45" viewBox="0 0 46 45" fill="none" xmlns="http://www.w3.org/2000/svg">
<g clip-path="url(#clip0_2915_8256)">
<path d="M37.1667 24.25H32.6111M37.1667 13H18.9444M37.1667 31H32.6111M19.4 40H36.7111C39.2625 40 40.5381 40 41.5126 39.5095C42.3698 39.0781 43.0667 38.3897 43.5035 37.543C44 36.5804 44 35.3202 44 32.8V11.2C44 8.67976 44 7.41965 43.5035 6.45704C43.0667 5.61031 42.3698 4.9219 41.5126 4.49047C40.5381 4 39.2625 4 36.7111 4H19.4C16.8486 4 15.573 4 14.5985 4.49047C13.7413 4.9219 13.0444 5.61031 12.6076 6.45704C12.1111 7.41965 12.1111 8.67976 12.1111 11.2V32.8C12.1111 35.3202 12.1111 36.5804 12.6076 37.543C13.0444 38.3897 13.7413 39.0781 14.5985 39.5095C15.573 40 16.8486 40 19.4 40ZM25.7778 27.625C25.7778 29.489 24.2481 31 22.3611 31C20.4741 31 18.9444 29.489 18.9444 27.625C18.9444 25.761 20.4741 24.25 22.3611 24.25C24.2481 24.25 25.7778 25.761 25.7778 27.625ZM7.55556 40C5.03959 40 3 37.9853 3 35.5V8.5C3 6.01472 5.03959 4 7.55556 4C10.0715 4 12.1111 6.01472 12.1111 8.5V35.5C12.1111 37.9853 10.0715 40 7.55556 40Z" stroke="url(#paint0_linear_2915_8256)" stroke-width="3" stroke-linecap="round" stroke-linejoin="round"/>
</g>
<defs>
<linearGradient id="paint0_linear_2915_8256" x1="3.60425" y1="39.871" x2="17.5002" y2="-4.01889" gradientUnits="userSpaceOnUse">
<stop stop-color="#6366F1"/>
<stop offset="0.5" stop-color="#8B5CF6"/>
<stop offset="1" stop-color="#D946EF"/>
</linearGradient>
<clipPath id="clip0_2915_8256">
<rect width="45" height="45" fill="white" transform="translate(0.700195)"/>
</clipPath>
</defs>
</svg>
