<svg width="45" height="45" viewBox="0 0 45 45" fill="none" xmlns="http://www.w3.org/2000/svg">
<g clip-path="url(#clip0_2915_8268)">
<path d="M2 15.6667H43M11.1111 2V6.55556M33.8889 2V6.55556M22.4945 24.1216C20.9006 22.3469 18.2426 21.8695 16.2455 23.4946C14.2485 25.1197 13.9673 27.8368 15.5356 29.7588C16.421 30.8439 18.5248 32.7462 20.1889 34.1971C20.9782 34.8852 21.3728 35.2293 21.8502 35.37C22.2571 35.4901 22.732 35.4901 23.1389 35.37C23.6163 35.2293 24.0109 34.8852 24.8001 34.1971C26.4643 32.7462 28.568 30.8439 29.4535 29.7588C31.0218 27.8368 30.7749 25.1026 28.7435 23.4946C26.7121 21.8866 24.0885 22.3469 22.4945 24.1216ZM9.28889 43H35.7111C38.2625 43 39.5381 43 40.5126 42.5035C41.3698 42.0667 42.0667 41.3698 42.5035 40.5126C43 39.5381 43 38.2625 43 35.7111V13.8444C43 11.2931 43 10.0174 42.5035 9.04293C42.0667 8.18575 41.3698 7.48884 40.5126 7.05208C39.5381 6.55556 38.2625 6.55556 35.7111 6.55556H9.28889C6.73754 6.55556 5.46186 6.55556 4.48738 7.05208C3.63019 7.48884 2.93328 8.18575 2.49653 9.04293C2 10.0174 2 11.2931 2 13.8444V35.7111C2 38.2625 2 39.5381 2.49653 40.5126C2.93328 41.3698 3.63019 42.0667 4.48738 42.5035C5.46186 43 6.73754 43 9.28889 43Z" stroke="url(#paint0_linear_2915_8268)" stroke-width="3" stroke-linecap="round" stroke-linejoin="round"/>
</g>
<defs>
<linearGradient id="paint0_linear_2915_8268" x1="2.60425" y1="42.8531" x2="20.1532" y2="-5.8154" gradientUnits="userSpaceOnUse">
<stop stop-color="#6366F1"/>
<stop offset="0.5" stop-color="#8B5CF6"/>
<stop offset="1" stop-color="#D946EF"/>
</linearGradient>
<clipPath id="clip0_2915_8268">
<rect width="45" height="45" fill="white"/>
</clipPath>
</defs>
</svg>
