<svg width="1920" height="1225" viewBox="0 0 1920 1225" fill="none" xmlns="http://www.w3.org/2000/svg">
<g clip-path="url(#clip0_2965_2226)">
<path opacity="0.3" fill-rule="evenodd" clip-rule="evenodd" d="M1677.05 640.943C1642.68 644.924 1606.29 668.039 1596.16 692.321C1586.77 714.843 1596.39 736.521 1617.74 740.931C1629.93 743.448 1636.79 739.321 1644.06 725.092C1655.92 701.902 1670.25 691.495 1690.49 691.382C1703.66 691.309 1709.32 693.49 1717.64 701.852C1735.89 720.196 1730.1 738.161 1698.22 762.181C1669.37 783.925 1656.57 802.543 1656.55 822.821C1656.54 837.183 1661.55 844.695 1680.41 858.541C1693.75 868.338 1699.59 873.433 1705.14 880.095C1710.62 886.682 1710.87 888.343 1705.8 884.52C1684.29 868.28 1652.02 887.025 1654.34 914.418C1654.9 921.099 1655.38 922.461 1658.48 926.248C1660.41 928.601 1661.99 931.015 1661.99 931.611C1661.99 933.372 1669 939.47 1673.93 941.988C1677.73 943.933 1679.96 944.311 1687.33 944.258C1696.09 944.196 1696.13 944.206 1691.83 945.493C1683.76 947.905 1668.5 946.202 1655.13 941.4C1651.02 939.921 1648.99 940.012 1648.99 941.673C1648.99 942.077 1650.68 942.888 1652.74 943.476C1654.8 944.063 1660.09 945.55 1664.49 946.78C1709.78 959.445 1737.46 919.735 1709.68 881.94C1702.96 872.786 1699.16 869.356 1680.49 855.567C1663.86 843.288 1659.01 835.964 1659 823.075C1658.97 803.964 1671.74 785.111 1697.99 765.501C1732.42 739.774 1738.88 721.376 1720.58 701.112C1708.39 687.617 1687.86 684.341 1670.14 693.065C1658.84 698.631 1649.43 708.968 1641.7 724.321C1636.17 735.295 1631.61 738.821 1622.96 738.821C1604.35 738.821 1592.28 722.273 1595.98 701.821C1600.23 678.287 1629.13 654.872 1665.49 645.491C1683.05 640.961 1714.55 642.58 1734.49 649.037C1788.41 666.505 1805.41 719.307 1771.76 764.821C1765.04 773.919 1749.02 788.885 1738.04 796.324C1721.06 807.838 1718.28 811.226 1710.98 829.321C1707.35 838.321 1707.35 838.321 1701.27 838.999C1688.74 840.397 1680.34 847.386 1686.41 851.363C1690.19 853.839 1701.84 849.156 1707.42 842.917C1709.58 840.507 1713.3 840.635 1723.99 843.489C1748.22 849.958 1759.25 856.987 1781.23 879.96C1804.13 903.899 1815.92 910.821 1833.8 910.821C1851.44 910.821 1865.01 904.635 1892.78 883.927C1913.21 868.697 1922.77 862.525 1931.49 858.944C1951.4 850.768 1974.66 852.455 2004.99 864.274C2010.21 866.31 2016.07 868.37 2018 868.851C2019.94 869.332 2024.44 871.233 2028 873.074C2034.18 876.262 2046.24 881.046 2055.99 884.171C2067.69 887.923 2075.5 889.891 2094.49 893.865C2116.79 898.534 2183.28 898.463 2195.66 893.757C2199.29 892.375 2198.58 890.446 2194.74 891.249C2152.63 900.03 2082.8 893.94 2046.49 878.318C2039.1 875.142 2027.74 870.821 2026.77 870.821C2026.19 870.821 2021.99 869.038 2017.45 866.859C1988.5 852.976 1958.36 847.941 1938.99 853.752C1925.04 857.937 1915.04 863.964 1887.91 884.541C1866.15 901.052 1850.5 908.024 1835.03 908.105C1816.8 908.201 1808.53 903.505 1783.84 879.037C1764.22 859.603 1757.65 854.344 1745.75 848.557C1737.23 844.412 1723.29 839.999 1715.97 839.133C1710.14 838.442 1710.16 838.553 1713.76 829.191C1719.51 814.22 1723.31 809.522 1737.77 799.501C1786.22 765.939 1803.62 723.172 1784.22 685.321C1768.11 653.863 1723.81 635.524 1677.05 640.943ZM1702.36 843.731C1696.69 848.893 1684.67 851.379 1687.5 846.806C1688.81 844.687 1698.42 841.284 1703.99 840.965C1704.89 840.914 1704.24 842.014 1702.36 843.731ZM1697.25 882.571C1703.31 884.679 1711.04 891.355 1714.76 897.687C1718.52 904.085 1718.74 917.935 1715.19 924.612C1703.91 945.802 1674.63 948.059 1662.4 928.68C1653.73 914.95 1655.54 899.802 1667.09 889.419C1675.97 881.439 1686.88 878.962 1697.25 882.571ZM993.987 999.293C993.162 999.487 988.437 1000.17 983.487 1000.8C833.655 1104.63 824.591 1114.73 775.987 1132.76C771.312 1134.5 762.762 1137.66 756.987 1139.78C751.212 1141.9 742.212 1145.31 736.987 1147.35C645.824 1182.97 549.882 1190.1 496.209 1165.77C488.945 1162.47 487.981 1162.28 488 1164.07C488.014 1165.4 498.549 1170.05 510.987 1174.22C549.147 1187.01 590.5 1185.5 644 1176.5C688.5 1169.01 708.074 1160.72 728.487 1153.29C733.987 1151.29 741.637 1148.55 745.487 1147.2C749.337 1145.85 753.387 1144.33 754.487 1143.82C755.587 1143.3 758.962 1141.95 761.987 1140.82C767.845 1138.63 769.315 1138.04 775.271 1135.46C777.352 1134.56 779.534 1133.82 780.12 1133.82C780.706 1133.82 782.603 1133.2 784.336 1132.44C822.145 1115.88 978.118 1001.52 1015.49 1001.48C1059.55 1001.44 1144.19 992.279 1200.41 1023.71C1206.42 1027.07 1211.49 1029.82 1211.68 1029.82C1211.87 1029.82 1213.71 1030.87 1215.76 1032.15C1217.81 1033.44 1221.96 1035.84 1224.99 1037.5C1228.01 1039.16 1234.61 1042.81 1239.64 1045.61C1262.03 1058.09 1288.29 1070.3 1304.99 1076C1382.41 1102.45 1466.19 1047.77 1535.2 995.661C1548.51 985.612 1590.33 938.932 1599.49 936.295C1606.47 934.283 1622.44 933.92 1628.43 935.637C1633.1 936.974 1633.25 936.907 1631.39 934.363C1630.1 932.597 1628.68 932.403 1616.73 932.364C1601.83 932.316 1596.27 933.587 1584.99 939.617C1578.8 942.922 1544.51 985.841 1524.99 999.998C1458.07 1048.55 1367.24 1099.62 1291.99 1068.39C1271.8 1060.02 1254.77 1051.36 1219.49 1031.54C1144.3 989.293 1067.17 999.868 1018.99 999.245C1006.06 999.077 994.812 999.099 993.987 999.293Z" fill="#6366F1"/>
</g>
<defs>
<clipPath id="clip0_2965_2226">
<rect width="1920" height="1225" fill="white"/>
</clipPath>
</defs>
</svg>
