<svg width="219" height="46" viewBox="0 0 219 46" fill="none" xmlns="http://www.w3.org/2000/svg">
<g clip-path="url(#clip0_4902_11804)">
<g opacity="0.5" clip-path="url(#clip1_4902_11804)">
<path d="M16.8628 39C7.9045 39 0.642578 31.6536 0.642578 22.5916V7C9.6006 7 16.8628 14.3462 16.8628 23.4084V39Z" fill="#F3F6FF"/>
<path d="M18.2852 25.7338V17.453C18.2852 11.6798 22.9116 7 28.6182 7V15.2809C28.6182 21.0537 23.9921 25.7338 18.2852 25.7338Z" fill="#F3F6FF"/>
<path d="M41.6439 38.9996H29.7938C23.4379 38.9996 18.2852 33.7873 18.2852 27.3574H30.1352C36.4911 27.3574 41.6439 32.5697 41.6439 38.9996Z" fill="#F3F6FF"/>
</g>
<path d="M48.1021 30V18.66H49.9396L54.1291 26.976L58.3081 18.66H60.1561V30H58.0351V23.154L54.6226 30H53.6251L50.2126 23.154V30H48.1021ZM66.3063 30.315C65.4663 30.315 64.7628 30.161 64.1958 29.853C63.6288 29.538 63.1983 29.125 62.9043 28.614C62.6173 28.096 62.4738 27.529 62.4738 26.913C62.4738 26.339 62.5753 25.835 62.7783 25.401C62.9813 24.967 63.2823 24.5995 63.6813 24.2985C64.0803 23.9905 64.5703 23.742 65.1513 23.553C65.6553 23.406 66.2258 23.2765 66.8628 23.1645C67.4998 23.0525 68.1683 22.9475 68.8683 22.8495C69.5753 22.7515 70.2753 22.6535 70.9683 22.5555L70.1703 22.9965C70.1843 22.1075 69.9953 21.4495 69.6033 21.0225C69.2183 20.5885 68.5533 20.3715 67.6083 20.3715C67.0133 20.3715 66.4673 20.5115 65.9703 20.7915C65.4733 21.0645 65.1268 21.5195 64.9308 22.1565L62.8833 21.5265C63.1633 20.5535 63.6953 19.78 64.4793 19.206C65.2703 18.632 66.3203 18.345 67.6293 18.345C68.6443 18.345 69.5263 18.52 70.2753 18.87C71.0313 19.213 71.5843 19.759 71.9343 20.508C72.1163 20.879 72.2283 21.271 72.2703 21.684C72.3123 22.097 72.3333 22.5415 72.3333 23.0175V30H70.3908V27.4065L70.7688 27.7425C70.2998 28.6105 69.7013 29.258 68.9733 29.685C68.2523 30.105 67.3633 30.315 66.3063 30.315ZM66.6948 28.5195C67.3178 28.5195 67.8533 28.411 68.3013 28.194C68.7493 27.97 69.1098 27.6865 69.3828 27.3435C69.6558 27.0005 69.8343 26.6435 69.9183 26.2725C70.0373 25.9365 70.1038 25.5585 70.1178 25.1385C70.1388 24.7185 70.1493 24.3825 70.1493 24.1305L70.8633 24.393C70.1703 24.498 69.5403 24.5925 68.9733 24.6765C68.4063 24.7605 67.8918 24.8445 67.4298 24.9285C66.9748 25.0055 66.5688 25.1 66.2118 25.212C65.9108 25.317 65.6413 25.443 65.4033 25.59C65.1723 25.737 64.9868 25.9155 64.8468 26.1255C64.7138 26.3355 64.6473 26.591 64.6473 26.892C64.6473 27.186 64.7208 27.459 64.8678 27.711C65.0148 27.956 65.2388 28.152 65.5398 28.299C65.8408 28.446 66.2258 28.5195 66.6948 28.5195ZM75.0598 30V18.66H83.0398V20.7285H77.2543V30H75.0598ZM87.901 30.315C87.061 30.315 86.3575 30.161 85.7905 29.853C85.2235 29.538 84.793 29.125 84.499 28.614C84.212 28.096 84.0685 27.529 84.0685 26.913C84.0685 26.339 84.17 25.835 84.373 25.401C84.576 24.967 84.877 24.5995 85.276 24.2985C85.675 23.9905 86.165 23.742 86.746 23.553C87.25 23.406 87.8205 23.2765 88.4575 23.1645C89.0945 23.0525 89.763 22.9475 90.463 22.8495C91.17 22.7515 91.87 22.6535 92.563 22.5555L91.765 22.9965C91.779 22.1075 91.59 21.4495 91.198 21.0225C90.813 20.5885 90.148 20.3715 89.203 20.3715C88.608 20.3715 88.062 20.5115 87.565 20.7915C87.068 21.0645 86.7215 21.5195 86.5255 22.1565L84.478 21.5265C84.758 20.5535 85.29 19.78 86.074 19.206C86.865 18.632 87.915 18.345 89.224 18.345C90.239 18.345 91.121 18.52 91.87 18.87C92.626 19.213 93.179 19.759 93.529 20.508C93.711 20.879 93.823 21.271 93.865 21.684C93.907 22.097 93.928 22.5415 93.928 23.0175V30H91.9855V27.4065L92.3635 27.7425C91.8945 28.6105 91.296 29.258 90.568 29.685C89.847 30.105 88.958 30.315 87.901 30.315ZM88.2895 28.5195C88.9125 28.5195 89.448 28.411 89.896 28.194C90.344 27.97 90.7045 27.6865 90.9775 27.3435C91.2505 27.0005 91.429 26.6435 91.513 26.2725C91.632 25.9365 91.6985 25.5585 91.7125 25.1385C91.7335 24.7185 91.744 24.3825 91.744 24.1305L92.458 24.393C91.765 24.498 91.135 24.5925 90.568 24.6765C90.001 24.7605 89.4865 24.8445 89.0245 24.9285C88.5695 25.0055 88.1635 25.1 87.8065 25.212C87.5055 25.317 87.236 25.443 86.998 25.59C86.767 25.737 86.5815 25.9155 86.4415 26.1255C86.3085 26.3355 86.242 26.591 86.242 26.892C86.242 27.186 86.3155 27.459 86.4625 27.711C86.6095 27.956 86.8335 28.152 87.1345 28.299C87.4355 28.446 87.8205 28.5195 88.2895 28.5195ZM100.697 30.315C99.5981 30.315 98.6111 30.0805 97.7361 29.6115C96.8681 29.1425 96.1821 28.495 95.6781 27.669L97.4211 26.5245C97.8271 27.0705 98.2961 27.494 98.8281 27.795C99.3671 28.096 99.9726 28.2465 100.645 28.2465C101.345 28.2465 101.898 28.089 102.304 27.774C102.717 27.452 102.923 27.0215 102.923 26.4825C102.923 26.0555 102.804 25.7405 102.566 25.5375C102.335 25.3275 102.013 25.191 101.6 25.128C101.194 25.065 100.732 25.0335 100.214 25.0335H99.2061V23.2695H100.214C100.9 23.2695 101.464 23.175 101.905 22.986C102.353 22.79 102.577 22.4225 102.577 21.8835C102.577 21.3585 102.384 20.9805 101.999 20.7495C101.621 20.5185 101.17 20.403 100.645 20.403C100.057 20.403 99.4861 20.529 98.9331 20.781C98.3801 21.026 97.8971 21.3305 97.4841 21.6945L96.2031 20.193C96.8051 19.612 97.4911 19.1605 98.2611 18.8385C99.0381 18.5095 99.8711 18.345 100.76 18.345C101.488 18.345 102.16 18.4745 102.776 18.7335C103.399 18.9855 103.896 19.36 104.267 19.857C104.645 20.354 104.834 20.9665 104.834 21.6945C104.834 22.2615 104.708 22.7795 104.456 23.2485C104.204 23.7175 103.819 24.1445 103.301 24.5295L103.238 23.784C103.665 23.917 104.022 24.1305 104.309 24.4245C104.596 24.7185 104.81 25.065 104.95 25.464C105.097 25.856 105.17 26.2725 105.17 26.7135C105.17 27.4765 104.967 28.1275 104.561 28.6665C104.162 29.2055 103.623 29.615 102.944 29.895C102.265 30.175 101.516 30.315 100.697 30.315ZM117.038 18.66V30H114.927V22.1145L109.257 30H107.472V18.66H109.583V26.388L115.263 18.66H117.038ZM119.961 30V18.66H122.156V23.2905H127.689V18.66H129.884V30H127.689V25.359H122.156V30H119.961ZM144.983 28.95L141.308 24.3195L144.983 19.6995L146.19 20.655L143.261 24.3195L146.19 27.9945L144.983 28.95ZM140.919 28.95L137.244 24.3195L140.919 19.6995L142.127 20.655L139.208 24.3195L142.127 27.9945L140.919 28.95ZM153.842 30.315C152.68 30.315 151.693 30.056 150.881 29.538C150.069 29.02 149.446 28.3095 149.012 27.4065C148.585 26.5035 148.368 25.478 148.361 24.33C148.368 23.161 148.592 22.1285 149.033 21.2325C149.474 20.3295 150.104 19.6225 150.923 19.1115C151.742 18.6005 152.725 18.345 153.873 18.345C155.112 18.345 156.169 18.653 157.044 19.269C157.926 19.885 158.507 20.7285 158.787 21.7995L156.603 22.4295C156.386 21.7925 156.029 21.299 155.532 20.949C155.042 20.592 154.479 20.4135 153.842 20.4135C153.121 20.4135 152.529 20.585 152.067 20.928C151.605 21.264 151.262 21.726 151.038 22.314C150.814 22.902 150.699 23.574 150.692 24.33C150.699 25.499 150.965 26.444 151.49 27.165C152.022 27.886 152.806 28.2465 153.842 28.2465C154.549 28.2465 155.119 28.0855 155.553 27.7635C155.994 27.4345 156.33 26.9655 156.561 26.3565L158.787 26.8815C158.416 27.9875 157.804 28.838 156.95 29.433C156.096 30.021 155.06 30.315 153.842 30.315ZM163.733 30V20.634H159.858V18.66H169.802V20.634H165.927V30H163.733ZM174.67 30.315C173.83 30.315 173.126 30.161 172.559 29.853C171.992 29.538 171.562 29.125 171.268 28.614C170.981 28.096 170.837 27.529 170.837 26.913C170.837 26.339 170.939 25.835 171.142 25.401C171.345 24.967 171.646 24.5995 172.045 24.2985C172.444 23.9905 172.934 23.742 173.515 23.553C174.019 23.406 174.589 23.2765 175.226 23.1645C175.863 23.0525 176.532 22.9475 177.232 22.8495C177.939 22.7515 178.639 22.6535 179.332 22.5555L178.534 22.9965C178.548 22.1075 178.359 21.4495 177.967 21.0225C177.582 20.5885 176.917 20.3715 175.972 20.3715C175.377 20.3715 174.831 20.5115 174.334 20.7915C173.837 21.0645 173.49 21.5195 173.294 22.1565L171.247 21.5265C171.527 20.5535 172.059 19.78 172.843 19.206C173.634 18.632 174.684 18.345 175.993 18.345C177.008 18.345 177.89 18.52 178.639 18.87C179.395 19.213 179.948 19.759 180.298 20.508C180.48 20.879 180.592 21.271 180.634 21.684C180.676 22.097 180.697 22.5415 180.697 23.0175V30H178.754V27.4065L179.132 27.7425C178.663 28.6105 178.065 29.258 177.337 29.685C176.616 30.105 175.727 30.315 174.67 30.315ZM175.058 28.5195C175.681 28.5195 176.217 28.411 176.665 28.194C177.113 27.97 177.473 27.6865 177.746 27.3435C178.019 27.0005 178.198 26.6435 178.282 26.2725C178.401 25.9365 178.467 25.5585 178.481 25.1385C178.502 24.7185 178.513 24.3825 178.513 24.1305L179.227 24.393C178.534 24.498 177.904 24.5925 177.337 24.6765C176.77 24.7605 176.255 24.8445 175.793 24.9285C175.338 25.0055 174.932 25.1 174.575 25.212C174.274 25.317 174.005 25.443 173.767 25.59C173.536 25.737 173.35 25.9155 173.21 26.1255C173.077 26.3355 173.011 26.591 173.011 26.892C173.011 27.186 173.084 27.459 173.231 27.711C173.378 27.956 173.602 28.152 173.903 28.299C174.204 28.446 174.589 28.5195 175.058 28.5195ZM188.747 30.315C187.662 30.315 186.752 30.0525 186.017 29.5275C185.282 28.9955 184.725 28.278 184.347 27.375C183.969 26.472 183.78 25.4535 183.78 24.3195C183.78 23.1855 183.966 22.167 184.337 21.264C184.715 20.361 185.268 19.6505 185.996 19.1325C186.731 18.6075 187.634 18.345 188.705 18.345C189.769 18.345 190.686 18.6075 191.456 19.1325C192.233 19.6505 192.831 20.361 193.251 21.264C193.671 22.16 193.881 23.1785 193.881 24.3195C193.881 25.4535 193.671 26.4755 193.251 27.3855C192.838 28.2885 192.247 29.0025 191.477 29.5275C190.714 30.0525 189.804 30.315 188.747 30.315ZM183.413 35.04V18.66H185.366V26.8185H185.618V35.04H183.413ZM188.442 28.3305C189.142 28.3305 189.72 28.152 190.175 27.795C190.637 27.438 190.98 26.9585 191.204 26.3565C191.435 25.7475 191.55 25.0685 191.55 24.3195C191.55 23.5775 191.435 22.9055 191.204 22.3035C190.98 21.7015 190.633 21.222 190.164 20.865C189.695 20.508 189.097 20.3295 188.369 20.3295C187.683 20.3295 187.116 20.4975 186.668 20.8335C186.227 21.1695 185.898 21.6385 185.681 22.2405C185.471 22.8425 185.366 23.5355 185.366 24.3195C185.366 25.1035 185.471 25.7965 185.681 26.3985C185.891 27.0005 186.223 27.473 186.678 27.816C187.133 28.159 187.721 28.3305 188.442 28.3305ZM199.129 30V20.634H195.254V18.66H205.198V20.634H201.323V30H199.129ZM208.263 28.95L207.055 27.9945L209.974 24.3195L207.055 20.655L208.263 19.6995L211.938 24.3195L208.263 28.95ZM212.326 28.95L211.108 27.9945L214.038 24.3195L211.108 20.655L212.326 19.6995L216.001 24.3195L212.326 28.95Z" fill="white"/>
</g>
<defs>
<clipPath id="clip0_4902_11804">
<rect width="219" height="46" fill="white"/>
</clipPath>
<clipPath id="clip1_4902_11804">
<rect width="41" height="32" fill="white" transform="translate(0.642578 7)"/>
</clipPath>
</defs>
</svg>
