<svg width="330" height="74" viewBox="0 0 330 74" fill="none" xmlns="http://www.w3.org/2000/svg">
<path d="M84.137 32.555C82.0897 32.555 80.3507 32.0987 78.92 31.186C77.4893 30.2733 76.3917 29.0215 75.627 27.4305C74.8747 25.8395 74.4923 24.0327 74.48 22.01C74.4923 19.9503 74.887 18.1312 75.664 16.5525C76.441 14.9615 77.551 13.7158 78.994 12.8155C80.437 11.9152 82.1698 11.465 84.1925 11.465C86.3755 11.465 88.2378 12.0077 89.7795 13.093C91.3335 14.1783 92.3572 15.6645 92.8505 17.5515L89.0025 18.6615C88.6202 17.5392 87.9912 16.6697 87.1155 16.053C86.2522 15.424 85.2593 15.1095 84.137 15.1095C82.8667 15.1095 81.8245 15.4117 81.0105 16.016C80.1965 16.608 79.5922 17.422 79.1975 18.458C78.8028 19.494 78.5993 20.678 78.587 22.01C78.5993 24.0697 79.068 25.7347 79.993 27.005C80.9303 28.2753 82.3117 28.9105 84.137 28.9105C85.3827 28.9105 86.3878 28.6268 87.1525 28.0595C87.9295 27.4798 88.5215 26.6535 88.9285 25.5805L92.8505 26.5055C92.1968 28.4542 91.1177 29.9527 89.613 31.001C88.1083 32.037 86.283 32.555 84.137 32.555ZM102.009 32.555C100.529 32.555 99.2894 32.2837 98.2904 31.741C97.2914 31.186 96.5329 30.4583 96.0149 29.558C95.5092 28.6453 95.2564 27.6463 95.2564 26.561C95.2564 25.5497 95.4352 24.6617 95.7929 23.897C96.1505 23.1323 96.6809 22.4848 97.3839 21.9545C98.0869 21.4118 98.9502 20.974 99.9739 20.641C100.862 20.382 101.867 20.1538 102.989 19.9565C104.112 19.7592 105.29 19.5742 106.523 19.4015C107.769 19.2288 109.002 19.0562 110.223 18.8835L108.817 19.6605C108.842 18.0942 108.509 16.9348 107.818 16.1825C107.14 15.4178 105.968 15.0355 104.303 15.0355C103.255 15.0355 102.293 15.2822 101.417 15.7755C100.541 16.2565 99.9307 17.0582 99.5854 18.1805L95.9779 17.0705C96.4712 15.3562 97.4085 13.9933 98.7899 12.982C100.184 11.9707 102.034 11.465 104.34 11.465C106.128 11.465 107.682 11.7733 109.002 12.39C110.334 12.9943 111.308 13.9563 111.925 15.276C112.246 15.9297 112.443 16.6203 112.517 17.348C112.591 18.0757 112.628 18.8588 112.628 19.6975V32H109.205V27.4305L109.871 28.0225C109.045 29.5518 107.991 30.6927 106.708 31.445C105.438 32.185 103.871 32.555 102.009 32.555ZM102.693 29.3915C103.791 29.3915 104.735 29.2003 105.524 28.818C106.313 28.4233 106.948 27.9238 107.429 27.3195C107.91 26.7152 108.225 26.0862 108.373 25.4325C108.583 24.8405 108.7 24.1745 108.724 23.4345C108.761 22.6945 108.78 22.1025 108.78 21.6585L110.038 22.121C108.817 22.306 107.707 22.4725 106.708 22.6205C105.709 22.7685 104.802 22.9165 103.988 23.0645C103.187 23.2002 102.471 23.3667 101.842 23.564C101.312 23.749 100.837 23.971 100.418 24.23C100.011 24.489 99.684 24.8035 99.4374 25.1735C99.203 25.5435 99.0859 25.9937 99.0859 26.524C99.0859 27.042 99.2154 27.523 99.4744 27.967C99.7334 28.3987 100.128 28.744 100.658 29.003C101.189 29.262 101.867 29.3915 102.693 29.3915ZM126.349 9.726C125.374 9.726 124.48 9.4855 123.666 9.0045C122.865 8.5235 122.223 7.88217 121.742 7.0805C121.261 6.27883 121.021 5.38467 121.021 4.398H124.092C124.092 5.01467 124.314 5.545 124.758 5.989C125.202 6.433 125.732 6.655 126.349 6.655C126.978 6.655 127.508 6.433 127.94 5.989C128.384 5.545 128.606 5.01467 128.606 4.398H131.677C131.677 5.38467 131.436 6.27883 130.955 7.0805C130.474 7.88217 129.827 8.5235 129.013 9.0045C128.211 9.4855 127.323 9.726 126.349 9.726ZM134.267 12.02V32H130.548V18.1065L120.558 32H117.413V12.02H121.132V25.636L131.14 12.02H134.267ZM144.598 32V15.498H137.772V12.02H155.291V15.498H148.465V32H144.598ZM180.216 30.15L173.741 21.9915L180.216 13.8515L182.343 15.535L177.182 21.9915L182.343 28.4665L180.216 30.15ZM173.056 30.15L166.581 21.9915L173.056 13.8515L175.184 15.535L170.041 21.9915L175.184 28.4665L173.056 30.15ZM195.824 32.555C193.776 32.555 192.037 32.0987 190.607 31.186C189.176 30.2733 188.078 29.0215 187.314 27.4305C186.561 25.8395 186.179 24.0327 186.167 22.01C186.179 19.9503 186.574 18.1312 187.351 16.5525C188.128 14.9615 189.238 13.7158 190.681 12.8155C192.124 11.9152 193.856 11.465 195.879 11.465C198.062 11.465 199.924 12.0077 201.466 13.093C203.02 14.1783 204.044 15.6645 204.537 17.5515L200.689 18.6615C200.307 17.5392 199.678 16.6697 198.802 16.053C197.939 15.424 196.946 15.1095 195.824 15.1095C194.553 15.1095 193.511 15.4117 192.697 16.016C191.883 16.608 191.279 17.422 190.884 18.458C190.489 19.494 190.286 20.678 190.274 22.01C190.286 24.0697 190.755 25.7347 191.68 27.005C192.617 28.2753 193.998 28.9105 195.824 28.9105C197.069 28.9105 198.074 28.6268 198.839 28.0595C199.616 27.4798 200.208 26.6535 200.615 25.5805L204.537 26.5055C203.883 28.4542 202.804 29.9527 201.3 31.001C199.795 32.037 197.97 32.555 195.824 32.555ZM213.251 32V15.498H206.424V12.02H223.944V15.498H217.117V32H213.251ZM232.521 32.555C231.041 32.555 229.801 32.2837 228.802 31.741C227.803 31.186 227.045 30.4583 226.527 29.558C226.021 28.6453 225.768 27.6463 225.768 26.561C225.768 25.5497 225.947 24.6617 226.305 23.897C226.662 23.1323 227.193 22.4848 227.896 21.9545C228.599 21.4118 229.462 20.974 230.486 20.641C231.374 20.382 232.379 20.1538 233.501 19.9565C234.623 19.7592 235.801 19.5742 237.035 19.4015C238.28 19.2288 239.514 19.0562 240.735 18.8835L239.329 19.6605C239.353 18.0942 239.02 16.9348 238.33 16.1825C237.651 15.4178 236.48 15.0355 234.815 15.0355C233.766 15.0355 232.804 15.2822 231.929 15.7755C231.053 16.2565 230.442 17.0582 230.097 18.1805L226.49 17.0705C226.983 15.3562 227.92 13.9933 229.302 12.982C230.695 11.9707 232.545 11.465 234.852 11.465C236.64 11.465 238.194 11.7733 239.514 12.39C240.846 12.9943 241.82 13.9563 242.437 15.276C242.757 15.9297 242.955 16.6203 243.029 17.348C243.103 18.0757 243.14 18.8588 243.14 19.6975V32H239.717V27.4305L240.383 28.0225C239.557 29.5518 238.502 30.6927 237.22 31.445C235.949 32.185 234.383 32.555 232.521 32.555ZM233.205 29.3915C234.303 29.3915 235.246 29.2003 236.036 28.818C236.825 28.4233 237.46 27.9238 237.941 27.3195C238.422 26.7152 238.737 26.0862 238.885 25.4325C239.094 24.8405 239.211 24.1745 239.236 23.4345C239.273 22.6945 239.292 22.1025 239.292 21.6585L240.55 22.121C239.329 22.306 238.219 22.4725 237.22 22.6205C236.221 22.7685 235.314 22.9165 234.5 23.0645C233.698 23.2002 232.983 23.3667 232.354 23.564C231.824 23.749 231.349 23.971 230.93 24.23C230.523 24.489 230.196 24.8035 229.949 25.1735C229.715 25.5435 229.598 25.9937 229.598 26.524C229.598 27.042 229.727 27.523 229.986 27.967C230.245 28.3987 230.64 28.744 231.17 29.003C231.7 29.262 232.379 29.3915 233.205 29.3915ZM257.323 32.555C255.411 32.555 253.808 32.0925 252.513 31.1675C251.218 30.2302 250.238 28.966 249.572 27.375C248.906 25.784 248.573 23.9895 248.573 21.9915C248.573 19.9935 248.899 18.199 249.553 16.608C250.219 15.017 251.193 13.7652 252.476 12.8525C253.771 11.9275 255.362 11.465 257.249 11.465C259.124 11.465 260.739 11.9275 262.096 12.8525C263.465 13.7652 264.52 15.017 265.26 16.608C266 18.1867 266.37 19.9812 266.37 21.9915C266.37 23.9895 266 25.7902 265.26 27.3935C264.532 28.9845 263.49 30.2425 262.133 31.1675C260.789 32.0925 259.185 32.555 257.323 32.555ZM247.925 40.88V12.02H251.366V26.3945H251.81V40.88H247.925ZM256.787 29.0585C258.02 29.0585 259.037 28.744 259.839 28.115C260.653 27.486 261.257 26.6412 261.652 25.5805C262.059 24.5075 262.263 23.3112 262.263 21.9915C262.263 20.6842 262.059 19.5002 261.652 18.4395C261.257 17.3788 260.647 16.534 259.821 15.905C258.994 15.276 257.94 14.9615 256.657 14.9615C255.448 14.9615 254.449 15.2575 253.66 15.8495C252.883 16.4415 252.303 17.2678 251.921 18.3285C251.551 19.3892 251.366 20.6102 251.366 21.9915C251.366 23.3728 251.551 24.5938 251.921 25.6545C252.291 26.7152 252.877 27.5477 253.679 28.152C254.48 28.7563 255.516 29.0585 256.787 29.0585ZM275.616 32V15.498H268.789V12.02H286.309V15.498H279.482V32H275.616ZM291.708 30.15L289.581 28.4665L294.724 21.9915L289.581 15.535L291.708 13.8515L298.183 21.9915L291.708 30.15ZM298.868 30.15L296.722 28.4665L301.883 21.9915L296.722 15.535L298.868 13.8515L305.343 21.9915L298.868 30.15Z" fill="#0B0F19"/>
<path opacity="0.5" d="M74.112 56V47.36H75.512L78.704 53.696L81.888 47.36H83.296V56H81.68V50.784L79.08 56H78.32L75.72 50.784V56H74.112ZM87.9819 56.24C87.3419 56.24 86.8059 56.1227 86.3739 55.888C85.9419 55.648 85.6139 55.3333 85.3899 54.944C85.1712 54.5493 85.0619 54.1173 85.0619 53.648C85.0619 53.2107 85.1392 52.8267 85.2939 52.496C85.4485 52.1653 85.6779 51.8853 85.9819 51.656C86.2859 51.4213 86.6592 51.232 87.1019 51.088C87.4859 50.976 87.9205 50.8773 88.4059 50.792C88.8912 50.7067 89.4005 50.6267 89.9339 50.552C90.4725 50.4773 91.0059 50.4027 91.5339 50.328L90.9259 50.664C90.9365 49.9867 90.7925 49.4853 90.4939 49.16C90.2005 48.8293 89.6939 48.664 88.9739 48.664C88.5205 48.664 88.1045 48.7707 87.7259 48.984C87.3472 49.192 87.0832 49.5387 86.9339 50.024L85.3739 49.544C85.5872 48.8027 85.9925 48.2133 86.5899 47.776C87.1925 47.3387 87.9925 47.12 88.9899 47.12C89.7632 47.12 90.4352 47.2533 91.0059 47.52C91.5819 47.7813 92.0032 48.1973 92.2699 48.768C92.4085 49.0507 92.4939 49.3493 92.5259 49.664C92.5579 49.9787 92.5739 50.3173 92.5739 50.68V56H91.0939V54.024L91.3819 54.28C91.0245 54.9413 90.5685 55.4347 90.0139 55.76C89.4645 56.08 88.7872 56.24 87.9819 56.24ZM88.2779 54.872C88.7525 54.872 89.1605 54.7893 89.5019 54.624C89.8432 54.4533 90.1179 54.2373 90.3259 53.976C90.5339 53.7147 90.6699 53.4427 90.7339 53.16C90.8245 52.904 90.8752 52.616 90.8859 52.296C90.9019 51.976 90.9099 51.72 90.9099 51.528L91.4539 51.728C90.9259 51.808 90.4459 51.88 90.0139 51.944C89.5819 52.008 89.1899 52.072 88.8379 52.136C88.4912 52.1947 88.1819 52.2667 87.9099 52.352C87.6805 52.432 87.4752 52.528 87.2939 52.64C87.1179 52.752 86.9765 52.888 86.8699 53.048C86.7685 53.208 86.7179 53.4027 86.7179 53.632C86.7179 53.856 86.7739 54.064 86.8859 54.256C86.9979 54.4427 87.1685 54.592 87.3979 54.704C87.6272 54.816 87.9205 54.872 88.2779 54.872ZM94.6433 56L94.6513 47.36H96.3473V51.52L99.7393 47.36H101.867L98.2833 51.68L102.235 56H99.9633L96.3473 51.84V56H94.6433ZM106.582 56.24C105.696 56.24 104.944 56.0427 104.326 55.648C103.707 55.2533 103.232 54.712 102.902 54.024C102.576 53.336 102.411 52.5547 102.406 51.68C102.411 50.7893 102.582 50.0027 102.918 49.32C103.254 48.632 103.734 48.0933 104.358 47.704C104.982 47.3147 105.731 47.12 106.606 47.12C107.55 47.12 108.355 47.3547 109.022 47.824C109.694 48.2933 110.136 48.936 110.35 49.752L108.686 50.232C108.52 49.7467 108.248 49.3707 107.87 49.104C107.496 48.832 107.067 48.696 106.582 48.696C106.032 48.696 105.582 48.8267 105.23 49.088C104.878 49.344 104.616 49.696 104.446 50.144C104.275 50.592 104.187 51.104 104.182 51.68C104.187 52.5707 104.39 53.2907 104.79 53.84C105.195 54.3893 105.792 54.664 106.582 54.664C107.12 54.664 107.555 54.5413 107.886 54.296C108.222 54.0453 108.478 53.688 108.654 53.224L110.35 53.624C110.067 54.4667 109.6 55.1147 108.95 55.568C108.299 56.016 107.51 56.24 106.582 56.24ZM119.259 47.36V56H117.651V49.992L113.331 56H111.971V47.36H113.579V53.248L117.907 47.36H119.259ZM121.487 56V47.36H122.887L126.079 53.696L129.263 47.36H130.671V56H129.055V50.784L126.455 56H125.695L123.095 50.784V56H121.487ZM135.357 56.24C134.717 56.24 134.181 56.1227 133.749 55.888C133.317 55.648 132.989 55.3333 132.765 54.944C132.546 54.5493 132.437 54.1173 132.437 53.648C132.437 53.2107 132.514 52.8267 132.669 52.496C132.824 52.1653 133.053 51.8853 133.357 51.656C133.661 51.4213 134.034 51.232 134.477 51.088C134.861 50.976 135.296 50.8773 135.781 50.792C136.266 50.7067 136.776 50.6267 137.309 50.552C137.848 50.4773 138.381 50.4027 138.909 50.328L138.301 50.664C138.312 49.9867 138.168 49.4853 137.869 49.16C137.576 48.8293 137.069 48.664 136.349 48.664C135.896 48.664 135.48 48.7707 135.101 48.984C134.722 49.192 134.458 49.5387 134.309 50.024L132.749 49.544C132.962 48.8027 133.368 48.2133 133.965 47.776C134.568 47.3387 135.368 47.12 136.365 47.12C137.138 47.12 137.81 47.2533 138.381 47.52C138.957 47.7813 139.378 48.1973 139.645 48.768C139.784 49.0507 139.869 49.3493 139.901 49.664C139.933 49.9787 139.949 50.3173 139.949 50.68V56H138.469V54.024L138.757 54.28C138.4 54.9413 137.944 55.4347 137.389 55.76C136.84 56.08 136.162 56.24 135.357 56.24ZM135.653 54.872C136.128 54.872 136.536 54.7893 136.877 54.624C137.218 54.4533 137.493 54.2373 137.701 53.976C137.909 53.7147 138.045 53.4427 138.109 53.16C138.2 52.904 138.25 52.616 138.261 52.296C138.277 51.976 138.285 51.72 138.285 51.528L138.829 51.728C138.301 51.808 137.821 51.88 137.389 51.944C136.957 52.008 136.565 52.072 136.213 52.136C135.866 52.1947 135.557 52.2667 135.285 52.352C135.056 52.432 134.85 52.528 134.669 52.64C134.493 52.752 134.352 52.888 134.245 53.048C134.144 53.208 134.093 53.4027 134.093 53.632C134.093 53.856 134.149 54.064 134.261 54.256C134.373 54.4427 134.544 54.592 134.773 54.704C135.002 54.816 135.296 54.872 135.653 54.872ZM141.226 56V54.584C141.546 54.6427 141.789 54.6347 141.954 54.56C142.125 54.48 142.25 54.336 142.33 54.128C142.416 53.92 142.488 53.6507 142.546 53.32C142.637 52.8347 142.714 52.2827 142.778 51.664C142.848 51.04 142.909 50.3653 142.962 49.64C143.016 48.9147 143.064 48.1547 143.106 47.36H149.314V56H147.634V48.936H144.61C144.578 49.3573 144.541 49.8053 144.498 50.28C144.461 50.7493 144.418 51.216 144.37 51.68C144.322 52.144 144.272 52.5787 144.218 52.984C144.165 53.3893 144.109 53.736 144.05 54.024C143.944 54.6 143.786 55.0587 143.578 55.4C143.376 55.736 143.088 55.952 142.714 56.048C142.341 56.1493 141.845 56.1333 141.226 56ZM151.55 56V47.36H153.23V50.36H154.934C155.179 50.36 155.44 50.3653 155.718 50.376C156 50.3867 156.243 50.4133 156.446 50.456C156.91 50.552 157.31 50.712 157.646 50.936C157.987 51.16 158.251 51.4587 158.438 51.832C158.624 52.2 158.718 52.6533 158.718 53.192C158.718 53.944 158.52 54.544 158.126 54.992C157.736 55.4347 157.208 55.7333 156.542 55.888C156.328 55.936 156.075 55.968 155.782 55.984C155.494 55.9947 155.23 56 154.99 56H151.55ZM153.23 54.656H155.086C155.219 54.656 155.371 54.6507 155.542 54.64C155.712 54.6293 155.87 54.6053 156.014 54.568C156.27 54.4933 156.499 54.3413 156.702 54.112C156.904 53.8827 157.006 53.576 157.006 53.192C157.006 52.7973 156.904 52.4827 156.702 52.248C156.504 52.0133 156.254 51.8613 155.95 51.792C155.806 51.7547 155.659 51.7307 155.51 51.72C155.36 51.7093 155.219 51.704 155.086 51.704H153.23V54.656ZM160.237 56V47.36H161.909V50.888H166.125V47.36H167.797V56H166.125V52.464H161.909V56H160.237ZM170.034 56V47.36H171.714V50.36H172.85C173.095 50.36 173.359 50.3653 173.642 50.376C173.925 50.3867 174.165 50.4133 174.362 50.456C174.826 50.552 175.229 50.712 175.57 50.936C175.911 51.16 176.173 51.4587 176.354 51.832C176.541 52.2 176.634 52.6533 176.634 53.192C176.634 53.944 176.439 54.544 176.05 54.992C175.661 55.4347 175.133 55.7333 174.466 55.888C174.253 55.936 173.999 55.968 173.706 55.984C173.418 55.9947 173.151 56 172.906 56H170.034ZM171.714 54.656H173.002C173.141 54.656 173.295 54.6507 173.466 54.64C173.637 54.6293 173.794 54.6053 173.938 54.568C174.189 54.4933 174.415 54.3413 174.618 54.112C174.821 53.8827 174.922 53.576 174.922 53.192C174.922 52.7973 174.821 52.4827 174.618 52.248C174.421 52.0133 174.17 51.8613 173.866 51.792C173.727 51.7547 173.581 51.7307 173.426 51.72C173.277 51.7093 173.135 51.704 173.002 51.704H171.714V54.656ZM177.586 56V47.36H179.258V56H177.586ZM185.351 46.368C184.93 46.368 184.543 46.264 184.191 46.056C183.844 45.848 183.567 45.5707 183.359 45.224C183.151 44.8773 183.047 44.4907 183.047 44.064H184.375C184.375 44.3307 184.471 44.56 184.663 44.752C184.855 44.944 185.084 45.04 185.351 45.04C185.623 45.04 185.852 44.944 186.039 44.752C186.231 44.56 186.327 44.3307 186.327 44.064H187.655C187.655 44.4907 187.551 44.8773 187.343 45.224C187.135 45.5707 186.855 45.848 186.503 46.056C186.156 46.264 185.772 46.368 185.351 46.368ZM188.775 47.36V56H187.167V49.992L182.847 56H181.487V47.36H183.095V53.248L187.423 47.36H188.775ZM198.27 56.24C197.443 56.24 196.75 56.04 196.19 55.64C195.63 55.2347 195.206 54.688 194.918 54C194.63 53.312 194.486 52.536 194.486 51.672C194.486 50.808 194.627 50.032 194.91 49.344C195.198 48.656 195.619 48.1147 196.174 47.72C196.734 47.32 197.422 47.12 198.238 47.12C199.048 47.12 199.747 47.32 200.334 47.72C200.926 48.1147 201.382 48.656 201.702 49.344C202.022 50.0267 202.182 50.8027 202.182 51.672C202.182 52.536 202.022 53.3147 201.702 54.008C201.387 54.696 200.936 55.24 200.35 55.64C199.768 56.04 199.075 56.24 198.27 56.24ZM194.206 59.84V47.36H195.694V53.576H195.886V59.84H194.206ZM198.038 54.728C198.571 54.728 199.011 54.592 199.358 54.32C199.71 54.048 199.971 53.6827 200.142 53.224C200.318 52.76 200.406 52.2427 200.406 51.672C200.406 51.1067 200.318 50.5947 200.142 50.136C199.971 49.6773 199.707 49.312 199.35 49.04C198.992 48.768 198.536 48.632 197.982 48.632C197.459 48.632 197.027 48.76 196.686 49.016C196.35 49.272 196.099 49.6293 195.934 50.088C195.774 50.5467 195.694 51.0747 195.694 51.672C195.694 52.2693 195.774 52.7973 195.934 53.256C196.094 53.7147 196.347 54.0747 196.694 54.336C197.04 54.5973 197.488 54.728 198.038 54.728ZM206.388 56.24C205.748 56.24 205.212 56.1227 204.78 55.888C204.348 55.648 204.02 55.3333 203.796 54.944C203.577 54.5493 203.468 54.1173 203.468 53.648C203.468 53.2107 203.545 52.8267 203.7 52.496C203.855 52.1653 204.084 51.8853 204.388 51.656C204.692 51.4213 205.065 51.232 205.508 51.088C205.892 50.976 206.327 50.8773 206.812 50.792C207.297 50.7067 207.807 50.6267 208.34 50.552C208.879 50.4773 209.412 50.4027 209.94 50.328L209.332 50.664C209.343 49.9867 209.199 49.4853 208.9 49.16C208.607 48.8293 208.1 48.664 207.38 48.664C206.927 48.664 206.511 48.7707 206.132 48.984C205.753 49.192 205.489 49.5387 205.34 50.024L203.78 49.544C203.993 48.8027 204.399 48.2133 204.996 47.776C205.599 47.3387 206.399 47.12 207.396 47.12C208.169 47.12 208.841 47.2533 209.412 47.52C209.988 47.7813 210.409 48.1973 210.676 48.768C210.815 49.0507 210.9 49.3493 210.932 49.664C210.964 49.9787 210.98 50.3173 210.98 50.68V56H209.5V54.024L209.788 54.28C209.431 54.9413 208.975 55.4347 208.42 55.76C207.871 56.08 207.193 56.24 206.388 56.24ZM206.684 54.872C207.159 54.872 207.567 54.7893 207.908 54.624C208.249 54.4533 208.524 54.2373 208.732 53.976C208.94 53.7147 209.076 53.4427 209.14 53.16C209.231 52.904 209.281 52.616 209.292 52.296C209.308 51.976 209.316 51.72 209.316 51.528L209.86 51.728C209.332 51.808 208.852 51.88 208.42 51.944C207.988 52.008 207.596 52.072 207.244 52.136C206.897 52.1947 206.588 52.2667 206.316 52.352C206.087 52.432 205.881 52.528 205.7 52.64C205.524 52.752 205.383 52.888 205.276 53.048C205.175 53.208 205.124 53.4027 205.124 53.632C205.124 53.856 205.18 54.064 205.292 54.256C205.404 54.4427 205.575 54.592 205.804 54.704C206.033 54.816 206.327 54.872 206.684 54.872ZM216.138 56.24C215.3 56.24 214.548 56.0613 213.882 55.704C213.22 55.3467 212.698 54.8533 212.314 54.224L213.642 53.352C213.951 53.768 214.308 54.0907 214.714 54.32C215.124 54.5493 215.586 54.664 216.098 54.664C216.631 54.664 217.052 54.544 217.362 54.304C217.676 54.0587 217.834 53.7307 217.834 53.32C217.834 52.9947 217.743 52.7547 217.562 52.6C217.386 52.44 217.14 52.336 216.826 52.288C216.516 52.24 216.164 52.216 215.77 52.216H215.002V50.872H215.77C216.292 50.872 216.722 50.8 217.058 50.656C217.399 50.5067 217.57 50.2267 217.57 49.816C217.57 49.416 217.423 49.128 217.13 48.952C216.842 48.776 216.498 48.688 216.098 48.688C215.65 48.688 215.215 48.784 214.794 48.976C214.372 49.1627 214.004 49.3947 213.69 49.672L212.714 48.528C213.172 48.0853 213.695 47.7413 214.282 47.496C214.874 47.2453 215.508 47.12 216.186 47.12C216.74 47.12 217.252 47.2187 217.722 47.416C218.196 47.608 218.575 47.8933 218.858 48.272C219.146 48.6507 219.29 49.1173 219.29 49.672C219.29 50.104 219.194 50.4987 219.002 50.856C218.81 51.2133 218.516 51.5387 218.122 51.832L218.074 51.264C218.399 51.3653 218.671 51.528 218.89 51.752C219.108 51.976 219.271 52.24 219.378 52.544C219.49 52.8427 219.546 53.16 219.546 53.496C219.546 54.0773 219.391 54.5733 219.082 54.984C218.778 55.3947 218.367 55.7067 217.85 55.92C217.332 56.1333 216.762 56.24 216.138 56.24ZM221.3 56V47.36H222.7L225.892 53.696L229.076 47.36H230.484V56H228.868V50.784L226.268 56H225.508L222.908 50.784V56H221.3ZM236.561 56.24C235.703 56.24 234.948 56.0533 234.297 55.68C233.652 55.3013 233.148 54.776 232.785 54.104C232.428 53.4267 232.249 52.6427 232.249 51.752C232.249 50.808 232.425 49.9893 232.777 49.296C233.135 48.6027 233.631 48.0667 234.265 47.688C234.9 47.3093 235.639 47.12 236.481 47.12C237.361 47.12 238.111 47.3253 238.729 47.736C239.348 48.1413 239.809 48.72 240.113 49.472C240.423 50.224 240.545 51.1173 240.481 52.152H238.809V51.544C238.799 50.5413 238.607 49.8 238.233 49.32C237.865 48.84 237.303 48.6 236.545 48.6C235.708 48.6 235.079 48.864 234.657 49.392C234.236 49.92 234.025 50.6827 234.025 51.68C234.025 52.6293 234.236 53.3653 234.657 53.888C235.079 54.4053 235.687 54.664 236.481 54.664C237.004 54.664 237.455 54.5467 237.833 54.312C238.217 54.072 238.516 53.7307 238.729 53.288L240.369 53.808C240.033 54.5813 239.524 55.1813 238.841 55.608C238.159 56.0293 237.399 56.24 236.561 56.24ZM233.481 52.152V50.848H239.649V52.152H233.481ZM246.332 56.24C245.506 56.24 244.812 56.04 244.252 55.64C243.692 55.2347 243.268 54.688 242.98 54C242.692 53.312 242.548 52.536 242.548 51.672C242.548 50.808 242.69 50.032 242.972 49.344C243.26 48.656 243.682 48.1147 244.236 47.72C244.796 47.32 245.484 47.12 246.3 47.12C247.111 47.12 247.81 47.32 248.396 47.72C248.988 48.1147 249.444 48.656 249.764 49.344C250.084 50.0267 250.244 50.8027 250.244 51.672C250.244 52.536 250.084 53.3147 249.764 54.008C249.45 54.696 248.999 55.24 248.412 55.64C247.831 56.04 247.138 56.24 246.332 56.24ZM242.268 59.84V47.36H243.756V53.576H243.948V59.84H242.268ZM246.1 54.728C246.634 54.728 247.074 54.592 247.42 54.32C247.772 54.048 248.034 53.6827 248.204 53.224C248.38 52.76 248.468 52.2427 248.468 51.672C248.468 51.1067 248.38 50.5947 248.204 50.136C248.034 49.6773 247.77 49.312 247.412 49.04C247.055 48.768 246.599 48.632 246.044 48.632C245.522 48.632 245.09 48.76 244.748 49.016C244.412 49.272 244.162 49.6293 243.996 50.088C243.836 50.5467 243.756 51.0747 243.756 51.672C243.756 52.2693 243.836 52.7973 243.996 53.256C244.156 53.7147 244.41 54.0747 244.756 54.336C245.103 54.5973 245.551 54.728 246.1 54.728ZM73.32 70V68.584C73.64 68.6427 73.8827 68.6347 74.048 68.56C74.2187 68.48 74.344 68.336 74.424 68.128C74.5093 67.92 74.5813 67.6507 74.64 67.32C74.7307 66.8347 74.808 66.2827 74.872 65.664C74.9413 65.04 75.0027 64.3653 75.056 63.64C75.1093 62.9147 75.1573 62.1547 75.2 61.36H81.408V70H79.728V62.936H76.704C76.672 63.3573 76.6347 63.8053 76.592 64.28C76.5547 64.7493 76.512 65.216 76.464 65.68C76.416 66.144 76.3653 66.5787 76.312 66.984C76.2587 67.3893 76.2027 67.736 76.144 68.024C76.0373 68.6 75.88 69.0587 75.672 69.4C75.4693 69.736 75.1813 69.952 74.808 70.048C74.4347 70.1493 73.9387 70.1333 73.32 70ZM87.4033 70.24C86.5393 70.24 85.7899 70.0453 85.1553 69.656C84.5206 69.2667 84.0299 68.7307 83.6833 68.048C83.3419 67.36 83.1713 66.568 83.1713 65.672C83.1713 64.7707 83.3473 63.9787 83.6993 63.296C84.0513 62.608 84.5446 62.0747 85.1793 61.696C85.8139 61.312 86.5553 61.12 87.4033 61.12C88.2673 61.12 89.0166 61.3147 89.6513 61.704C90.2859 62.0933 90.7766 62.6293 91.1233 63.312C91.4699 63.9947 91.6433 64.7813 91.6433 65.672C91.6433 66.5733 91.4673 67.368 91.1153 68.056C90.7686 68.7387 90.2779 69.2747 89.6433 69.664C89.0086 70.048 88.2619 70.24 87.4033 70.24ZM87.4033 68.664C88.2299 68.664 88.8459 68.3867 89.2513 67.832C89.6619 67.272 89.8673 66.552 89.8673 65.672C89.8673 64.7707 89.6593 64.0507 89.2433 63.512C88.8326 62.968 88.2193 62.696 87.4033 62.696C86.8433 62.696 86.3819 62.824 86.0193 63.08C85.6566 63.3307 85.3873 63.68 85.2113 64.128C85.0353 64.5707 84.9473 65.0853 84.9473 65.672C84.9473 66.5787 85.1553 67.304 85.5713 67.848C85.9873 68.392 86.5979 68.664 87.4033 68.664ZM93.4013 70V61.36H99.4813V62.936H95.0733V70H93.4013ZM104.591 70.24C103.727 70.24 102.977 70.0453 102.343 69.656C101.708 69.2667 101.217 68.7307 100.871 68.048C100.529 67.36 100.359 66.568 100.359 65.672C100.359 64.7707 100.535 63.9787 100.887 63.296C101.239 62.608 101.732 62.0747 102.367 61.696C103.001 61.312 103.743 61.12 104.591 61.12C105.455 61.12 106.204 61.3147 106.839 61.704C107.473 62.0933 107.964 62.6293 108.311 63.312C108.657 63.9947 108.831 64.7813 108.831 65.672C108.831 66.5733 108.655 67.368 108.303 68.056C107.956 68.7387 107.465 69.2747 106.831 69.664C106.196 70.048 105.449 70.24 104.591 70.24ZM104.591 68.664C105.417 68.664 106.033 68.3867 106.439 67.832C106.849 67.272 107.055 66.552 107.055 65.672C107.055 64.7707 106.847 64.0507 106.431 63.512C106.02 62.968 105.407 62.696 104.591 62.696C104.031 62.696 103.569 62.824 103.207 63.08C102.844 63.3307 102.575 63.68 102.399 64.128C102.223 64.5707 102.135 65.0853 102.135 65.672C102.135 66.5787 102.343 67.304 102.759 67.848C103.175 68.392 103.785 68.664 104.591 68.664ZM112.633 70V62.864H109.681V61.36H117.257V62.864H114.305V70H112.633ZM126.056 61.36V70H124.448V63.992L120.128 70H118.768V61.36H120.376V67.248L124.704 61.36H126.056ZM128.284 70V61.36H135.572V70H133.9V62.936H129.956V70H128.284ZM140.248 70.24C139.608 70.24 139.072 70.1227 138.64 69.888C138.208 69.648 137.88 69.3333 137.656 68.944C137.437 68.5493 137.328 68.1173 137.328 67.648C137.328 67.2107 137.405 66.8267 137.56 66.496C137.714 66.1653 137.944 65.8853 138.248 65.656C138.552 65.4213 138.925 65.232 139.368 65.088C139.752 64.976 140.186 64.8773 140.672 64.792C141.157 64.7067 141.666 64.6267 142.2 64.552C142.738 64.4773 143.272 64.4027 143.8 64.328L143.192 64.664C143.202 63.9867 143.058 63.4853 142.76 63.16C142.466 62.8293 141.96 62.664 141.24 62.664C140.786 62.664 140.37 62.7707 139.992 62.984C139.613 63.192 139.349 63.5387 139.2 64.024L137.64 63.544C137.853 62.8027 138.258 62.2133 138.856 61.776C139.458 61.3387 140.258 61.12 141.256 61.12C142.029 61.12 142.701 61.2533 143.272 61.52C143.848 61.7813 144.269 62.1973 144.536 62.768C144.674 63.0507 144.76 63.3493 144.792 63.664C144.824 63.9787 144.84 64.3173 144.84 64.68V70H143.36V68.024L143.648 68.28C143.29 68.9413 142.834 69.4347 142.28 69.76C141.73 70.08 141.053 70.24 140.248 70.24ZM140.544 68.872C141.018 68.872 141.426 68.7893 141.768 68.624C142.109 68.4533 142.384 68.2373 142.592 67.976C142.8 67.7147 142.936 67.4427 143 67.16C143.09 66.904 143.141 66.616 143.152 66.296C143.168 65.976 143.176 65.72 143.176 65.528L143.72 65.728C143.192 65.808 142.712 65.88 142.28 65.944C141.848 66.008 141.456 66.072 141.104 66.136C140.757 66.1947 140.448 66.2667 140.176 66.352C139.946 66.432 139.741 66.528 139.56 66.64C139.384 66.752 139.242 66.888 139.136 67.048C139.034 67.208 138.984 67.4027 138.984 67.632C138.984 67.856 139.04 68.064 139.152 68.256C139.264 68.4427 139.434 68.592 139.664 68.704C139.893 68.816 140.186 68.872 140.544 68.872ZM153.344 70.216C152.773 70.216 152.237 70.1093 151.736 69.896C151.235 69.6773 150.8 69.368 150.432 68.968C150.069 68.568 149.805 68.096 149.64 67.552L151.256 67.104C151.411 67.6 151.68 67.9813 152.064 68.248C152.448 68.5093 152.875 68.6373 153.344 68.632C153.765 68.6267 154.136 68.528 154.456 68.336C154.776 68.144 155.027 67.8853 155.208 67.56C155.389 67.2293 155.48 66.8507 155.48 66.424C155.48 65.784 155.28 65.256 154.88 64.84C154.485 64.424 153.968 64.216 153.328 64.216C153.147 64.216 152.96 64.2427 152.768 64.296C152.581 64.3493 152.405 64.4187 152.24 64.504L151.456 63.184L155.52 59.592L155.696 60.072H150.096V58.48H157.024V60.072L153.648 63.32L153.632 62.776C154.357 62.776 154.987 62.9387 155.52 63.264C156.053 63.584 156.464 64.0213 156.752 64.576C157.045 65.1253 157.192 65.7413 157.192 66.424C157.192 67.16 157.019 67.8133 156.672 68.384C156.331 68.9547 155.869 69.4027 155.288 69.728C154.712 70.0533 154.064 70.216 153.344 70.216ZM162.5 70.216C161.93 70.216 161.394 70.1093 160.892 69.896C160.391 69.6773 159.956 69.368 159.588 68.968C159.226 68.568 158.962 68.096 158.796 67.552L160.412 67.104C160.567 67.6 160.836 67.9813 161.22 68.248C161.604 68.5093 162.031 68.6373 162.5 68.632C162.922 68.6267 163.292 68.528 163.612 68.336C163.932 68.144 164.183 67.8853 164.364 67.56C164.546 67.2293 164.636 66.8507 164.636 66.424C164.636 65.784 164.436 65.256 164.036 64.84C163.642 64.424 163.124 64.216 162.484 64.216C162.303 64.216 162.116 64.2427 161.924 64.296C161.738 64.3493 161.562 64.4187 161.396 64.504L160.612 63.184L164.676 59.592L164.852 60.072H159.252V58.48H166.18V60.072L162.804 63.32L162.788 62.776C163.514 62.776 164.143 62.9387 164.676 63.264C165.21 63.584 165.62 64.0213 165.908 64.576C166.202 65.1253 166.348 65.7413 166.348 66.424C166.348 67.16 166.175 67.8133 165.828 68.384C165.487 68.9547 165.026 69.4027 164.444 69.728C163.868 70.0533 163.22 70.216 162.5 70.216ZM172.449 70.24C171.665 70.24 170.971 70.0693 170.369 69.728C169.766 69.3813 169.291 68.9067 168.945 68.304C168.603 67.7013 168.433 67.008 168.433 66.224V62.256C168.433 61.472 168.603 60.7787 168.945 60.176C169.291 59.5733 169.766 59.1013 170.369 58.76C170.971 58.4133 171.665 58.24 172.449 58.24C173.233 58.24 173.926 58.4133 174.529 58.76C175.131 59.1013 175.603 59.5733 175.944 60.176C176.291 60.7787 176.465 61.472 176.465 62.256V66.224C176.465 67.008 176.291 67.7013 175.944 68.304C175.603 68.9067 175.131 69.3813 174.529 69.728C173.926 70.0693 173.233 70.24 172.449 70.24ZM172.449 68.64C172.875 68.64 173.262 68.5387 173.609 68.336C173.961 68.128 174.241 67.8507 174.449 67.504C174.657 67.152 174.761 66.76 174.761 66.328V62.136C174.761 61.7093 174.657 61.3227 174.449 60.976C174.241 60.624 173.961 60.3467 173.609 60.144C173.262 59.936 172.875 59.832 172.449 59.832C172.022 59.832 171.633 59.936 171.281 60.144C170.934 60.3467 170.657 60.624 170.449 60.976C170.241 61.3227 170.137 61.7093 170.137 62.136V66.328C170.137 66.76 170.241 67.152 170.449 67.504C170.657 67.8507 170.934 68.128 171.281 68.336C171.633 68.5387 172.022 68.64 172.449 68.64ZM181.893 70V61.36H183.565V64.888H187.781V61.36H189.453V70H187.781V66.464H183.565V70H181.893ZM194.138 70.24C193.498 70.24 192.962 70.1227 192.53 69.888C192.098 69.648 191.77 69.3333 191.546 68.944C191.327 68.5493 191.218 68.1173 191.218 67.648C191.218 67.2107 191.295 66.8267 191.45 66.496C191.605 66.1653 191.834 65.8853 192.138 65.656C192.442 65.4213 192.815 65.232 193.258 65.088C193.642 64.976 194.077 64.8773 194.562 64.792C195.047 64.7067 195.557 64.6267 196.09 64.552C196.629 64.4773 197.162 64.4027 197.69 64.328L197.082 64.664C197.093 63.9867 196.949 63.4853 196.65 63.16C196.357 62.8293 195.85 62.664 195.13 62.664C194.677 62.664 194.261 62.7707 193.882 62.984C193.503 63.192 193.239 63.5387 193.09 64.024L191.53 63.544C191.743 62.8027 192.149 62.2133 192.746 61.776C193.349 61.3387 194.149 61.12 195.146 61.12C195.919 61.12 196.591 61.2533 197.162 61.52C197.738 61.7813 198.159 62.1973 198.426 62.768C198.565 63.0507 198.65 63.3493 198.682 63.664C198.714 63.9787 198.73 64.3173 198.73 64.68V70H197.25V68.024L197.538 68.28C197.181 68.9413 196.725 69.4347 196.17 69.76C195.621 70.08 194.943 70.24 194.138 70.24ZM194.434 68.872C194.909 68.872 195.317 68.7893 195.658 68.624C195.999 68.4533 196.274 68.2373 196.482 67.976C196.69 67.7147 196.826 67.4427 196.89 67.16C196.981 66.904 197.031 66.616 197.042 66.296C197.058 65.976 197.066 65.72 197.066 65.528L197.61 65.728C197.082 65.808 196.602 65.88 196.17 65.944C195.738 66.008 195.346 66.072 194.994 66.136C194.647 66.1947 194.338 66.2667 194.066 66.352C193.837 66.432 193.631 66.528 193.45 66.64C193.274 66.752 193.133 66.888 193.026 67.048C192.925 67.208 192.874 67.4027 192.874 67.632C192.874 67.856 192.93 68.064 193.042 68.256C193.154 68.4427 193.325 68.592 193.554 68.704C193.783 68.816 194.077 68.872 194.434 68.872ZM204.611 70L208.659 60.072H203.531V58.48H210.459V60.072L206.419 70H204.611ZM216.625 70V67.992H211.425V66.408L215.169 58.48H217.081L213.337 66.408H216.625V63.288H218.321V66.408H219.465V67.992H218.321V70H216.625Z" fill="#383B56"/>
<g clip-path="url(#clip0_830_2948)">
<path d="M34.875 73.6875V53.1333C34.875 38.8043 47.0194 27.1875 62 27.1875V47.7417C62 62.0713 49.8556 73.6875 34.875 73.6875Z" fill="url(#paint0_linear_830_2948)"/>
<path d="M29.0625 60.125V29.6549C29.0625 13.3113 16.051 0.0625 0 0.0625V30.5326C0 46.8756 13.0115 60.125 29.0625 60.125Z" fill="url(#paint1_linear_830_2948)"/>
<path d="M54.0006 14.5287C55.2285 9.32127 52.0063 4.08792 46.8037 2.83971C41.6011 1.5915 36.3881 4.80111 35.1603 10.0086C33.9324 15.216 37.1546 20.4494 42.3572 21.6976C47.5598 22.9458 52.7727 19.7362 54.0006 14.5287Z" fill="url(#paint2_linear_830_2948)"/>
</g>
<defs>
<linearGradient id="paint0_linear_830_2948" x1="35.0518" y1="37.7406" x2="54.8417" y2="34.2321" gradientUnits="userSpaceOnUse">
<stop stop-color="#6366F1"/>
<stop offset="0.5" stop-color="#8B5CF6"/>
<stop offset="1" stop-color="#D946EF"/>
</linearGradient>
<linearGradient id="paint1_linear_830_2948" x1="27.1584" y1="33.222" x2="1.42545" y2="20.8681" gradientUnits="userSpaceOnUse">
<stop stop-color="#6366F1"/>
<stop offset="0.5" stop-color="#8B5CF6"/>
<stop offset="1" stop-color="#D946EF"/>
</linearGradient>
<linearGradient id="paint2_linear_830_2948" x1="40.9448" y1="27.2475" x2="42.0929" y2="5.17371" gradientUnits="userSpaceOnUse">
<stop stop-color="#6366F1"/>
<stop offset="0.5" stop-color="#8B5CF6"/>
<stop offset="1" stop-color="#D946EF"/>
</linearGradient>
<clipPath id="clip0_830_2948">
<rect width="62" height="73.625" fill="white" transform="translate(0 0.0625)"/>
</clipPath>
</defs>
</svg>
