<svg width="223" height="38" viewBox="0 0 223 38" fill="none" xmlns="http://www.w3.org/2000/svg">
<g clip-path="url(#clip0_903_1473)">
<path d="M50.536 29.4254C48.9668 29.4254 47.634 29.0756 46.5374 28.3761C45.4409 27.6766 44.5996 26.7171 44.0135 25.4977C43.4368 24.2783 43.1438 22.8934 43.1344 21.3431C43.1438 19.7645 43.4463 18.3702 44.0418 17.1602C44.6374 15.9407 45.4881 14.986 46.5941 14.2959C47.7001 13.6059 49.0283 13.2608 50.5786 13.2608C52.2517 13.2608 53.6791 13.6768 54.8607 14.5086C56.0518 15.3405 56.8364 16.4796 57.2145 17.9259L54.2652 18.7766C53.9722 17.9164 53.4901 17.25 52.8189 16.7773C52.1572 16.2952 51.3962 16.0542 50.536 16.0542C49.5624 16.0542 48.7636 16.2858 48.1397 16.749C47.5158 17.2027 47.0526 17.8266 46.7501 18.6207C46.4476 19.4147 46.2916 20.3222 46.2822 21.3431C46.2916 22.9218 46.6509 24.1979 47.3598 25.1716C48.0782 26.1452 49.137 26.632 50.536 26.632C51.4908 26.632 52.2612 26.4146 52.8473 25.9798C53.4428 25.5355 53.8965 24.9021 54.2085 24.0797L57.2145 24.7887C56.7135 26.2823 55.8864 27.4308 54.7331 28.2343C53.5799 29.0284 52.1808 29.4254 50.536 29.4254ZM64.234 29.4254C63.0997 29.4254 62.1496 29.2174 61.3839 28.8015C60.6183 28.3761 60.0369 27.8184 59.6399 27.1283C59.2523 26.4288 59.0585 25.6631 59.0585 24.8312C59.0585 24.0561 59.1956 23.3755 59.4697 22.7894C59.7439 22.2033 60.1503 21.707 60.6891 21.3006C61.228 20.8846 61.8897 20.5491 62.6743 20.2938C63.3549 20.0953 64.1253 19.9204 64.9855 19.7692C65.8457 19.6179 66.7485 19.4762 67.6938 19.3438C68.6485 19.2115 69.5938 19.0791 70.5297 18.9468L69.452 19.5423C69.4709 18.3418 69.2157 17.4532 68.6863 16.8766C68.1664 16.2905 67.2684 15.9975 65.9923 15.9975C65.1888 15.9975 64.4514 16.1865 63.7803 16.5646C63.1091 16.9333 62.6412 17.5477 62.3765 18.408L59.6115 17.5572C59.9896 16.2432 60.7081 15.1987 61.7668 14.4235C62.835 13.6484 64.2529 13.2608 66.0206 13.2608C67.3913 13.2608 68.5824 13.4972 69.5938 13.9698C70.6147 14.433 71.3615 15.1703 71.8342 16.1818C72.08 16.6828 72.2312 17.2122 72.2879 17.7699C72.3446 18.3276 72.373 18.9279 72.373 19.5707V29H69.7498V25.4977L70.2603 25.9514C69.6269 27.1236 68.8187 27.998 67.8356 28.5746C66.8619 29.1418 65.6614 29.4254 64.234 29.4254ZM64.7586 27.0007C65.6 27.0007 66.3231 26.8542 66.9281 26.5611C67.5331 26.2586 68.0199 25.8758 68.3886 25.4126C68.7572 24.9494 68.9983 24.4673 69.1117 23.9663C69.2724 23.5126 69.3622 23.0021 69.3811 22.4349C69.4095 21.8677 69.4237 21.414 69.4237 21.0737L70.3879 21.4282C69.452 21.57 68.6013 21.6976 67.8356 21.811C67.0699 21.9245 66.3751 22.0379 65.7512 22.1513C65.1368 22.2553 64.5885 22.3829 64.1064 22.5342C63.6999 22.676 63.336 22.8461 63.0146 23.0446C62.7026 23.2432 62.4521 23.4842 62.2631 23.7678C62.0835 24.0514 61.9937 24.3964 61.9937 24.8029C61.9937 25.1999 62.0929 25.5686 62.2914 25.9089C62.4899 26.2397 62.7924 26.5044 63.1989 26.7029C63.6054 26.9014 64.1253 27.0007 64.7586 27.0007ZM82.8895 11.928C82.1427 11.928 81.4574 11.7436 80.8335 11.375C80.219 11.0063 79.7275 10.5148 79.3588 9.90031C78.9901 9.28587 78.8058 8.60053 78.8058 7.84429H81.1596C81.1596 8.31694 81.3297 8.72342 81.6701 9.06373C82.0104 9.40403 82.4168 9.57418 82.8895 9.57418C83.3716 9.57418 83.7781 9.40403 84.1089 9.06373C84.4492 8.72342 84.6194 8.31694 84.6194 7.84429H86.9732C86.9732 8.60053 86.7888 9.28587 86.4202 9.90031C86.0515 10.5148 85.5552 11.0063 84.9313 11.375C84.3169 11.7436 83.6363 11.928 82.8895 11.928ZM88.9583 13.6862V29H86.1082V18.3512L78.4513 29H76.0408V13.6862H78.8909V24.1223L86.562 13.6862H88.9583ZM96.8768 29V16.352H91.6446V13.6862H105.073V16.352H99.8403V29H96.8768ZM124.176 27.5821L119.213 21.3289L124.176 15.09L125.807 16.3803L121.851 21.3289L125.807 26.2917L124.176 27.5821ZM118.689 27.5821L113.726 21.3289L118.689 15.09L120.319 16.3803L116.377 21.3289L120.319 26.2917L118.689 27.5821ZM136.139 29.4254C134.57 29.4254 133.237 29.0756 132.14 28.3761C131.044 27.6766 130.202 26.7171 129.616 25.4977C129.04 24.2783 128.747 22.8934 128.737 21.3431C128.747 19.7645 129.049 18.3702 129.645 17.1602C130.24 15.9407 131.091 14.986 132.197 14.2959C133.303 13.6059 134.631 13.2608 136.181 13.2608C137.854 13.2608 139.282 13.6768 140.463 14.5086C141.655 15.3405 142.439 16.4796 142.817 17.9259L139.868 18.7766C139.575 17.9164 139.093 17.25 138.422 16.7773C137.76 16.2952 136.999 16.0542 136.139 16.0542C135.165 16.0542 134.366 16.2858 133.742 16.749C133.119 17.2027 132.655 17.8266 132.353 18.6207C132.05 19.4147 131.894 20.3222 131.885 21.3431C131.894 22.9218 132.254 24.1979 132.963 25.1716C133.681 26.1452 134.74 26.632 136.139 26.632C137.094 26.632 137.864 26.4146 138.45 25.9798C139.046 25.5355 139.499 24.9021 139.811 24.0797L142.817 24.7887C142.316 26.2823 141.489 27.4308 140.336 28.2343C139.183 29.0284 137.784 29.4254 136.139 29.4254ZM149.496 29V16.352H144.264V13.6862H157.692V16.352H152.459V29H149.496ZM164.265 29.4254C163.131 29.4254 162.181 29.2174 161.415 28.8015C160.65 28.3761 160.068 27.8184 159.671 27.1283C159.284 26.4288 159.09 25.6631 159.09 24.8312C159.09 24.0561 159.227 23.3755 159.501 22.7894C159.775 22.2033 160.182 21.707 160.721 21.3006C161.259 20.8846 161.921 20.5491 162.706 20.2938C163.386 20.0953 164.157 19.9204 165.017 19.7692C165.877 19.6179 166.78 19.4762 167.725 19.3438C168.68 19.2115 169.625 19.0791 170.561 18.9468L169.483 19.5423C169.502 18.3418 169.247 17.4532 168.718 16.8766C168.198 16.2905 167.3 15.9975 166.024 15.9975C165.22 15.9975 164.483 16.1865 163.812 16.5646C163.141 16.9333 162.673 17.5477 162.408 18.408L159.643 17.5572C160.021 16.2432 160.739 15.1987 161.798 14.4235C162.866 13.6484 164.284 13.2608 166.052 13.2608C167.423 13.2608 168.614 13.4972 169.625 13.9698C170.646 14.433 171.393 15.1703 171.866 16.1818C172.111 16.6828 172.263 17.2122 172.319 17.7699C172.376 18.3276 172.404 18.9279 172.404 19.5707V29H169.781V25.4977L170.292 25.9514C169.658 27.1236 168.85 27.998 167.867 28.5746C166.893 29.1418 165.693 29.4254 164.265 29.4254ZM164.79 27.0007C165.631 27.0007 166.355 26.8542 166.96 26.5611C167.565 26.2586 168.051 25.8758 168.42 25.4126C168.789 24.9494 169.03 24.4673 169.143 23.9663C169.304 23.5126 169.394 23.0021 169.413 22.4349C169.441 21.8677 169.455 21.414 169.455 21.0737L170.419 21.4282C169.483 21.57 168.633 21.6976 167.867 21.811C167.101 21.9245 166.407 22.0379 165.783 22.1513C165.168 22.2553 164.62 22.3829 164.138 22.5342C163.731 22.676 163.367 22.8461 163.046 23.0446C162.734 23.2432 162.484 23.4842 162.294 23.7678C162.115 24.0514 162.025 24.3964 162.025 24.8029C162.025 25.1999 162.124 25.5686 162.323 25.9089C162.521 26.2397 162.824 26.5044 163.23 26.7029C163.637 26.9014 164.157 27.0007 164.79 27.0007ZM183.275 29.4254C181.81 29.4254 180.581 29.0709 179.589 28.3619C178.596 27.6435 177.845 26.6746 177.334 25.4551C176.824 24.2357 176.569 22.8603 176.569 21.3289C176.569 19.7976 176.819 18.4221 177.32 17.2027C177.83 15.9833 178.577 15.0238 179.56 14.3243C180.553 13.6153 181.772 13.2608 183.219 13.2608C184.656 13.2608 185.894 13.6153 186.934 14.3243C187.983 15.0238 188.791 15.9833 189.358 17.2027C189.926 18.4127 190.209 19.7881 190.209 21.3289C190.209 22.8603 189.926 24.2404 189.358 25.4693C188.801 26.6888 188.002 27.653 186.962 28.3619C185.932 29.0709 184.703 29.4254 183.275 29.4254ZM176.072 35.8061V13.6862H178.71V24.7036H179.05V35.8061H176.072ZM182.864 26.7455C183.809 26.7455 184.589 26.5044 185.204 26.0223C185.828 25.5402 186.291 24.8927 186.593 24.0797C186.905 23.2573 187.061 22.3404 187.061 21.3289C187.061 20.3269 186.905 19.4194 186.593 18.6065C186.291 17.7935 185.823 17.146 185.19 16.6639C184.556 16.1818 183.748 15.9407 182.765 15.9407C181.839 15.9407 181.073 16.1676 180.468 16.6214C179.872 17.0751 179.428 17.7084 179.135 18.5214C178.851 19.3344 178.71 20.2702 178.71 21.3289C178.71 22.3877 178.851 23.3235 179.135 24.1365C179.419 24.9494 179.868 25.5875 180.482 26.0507C181.096 26.5139 181.891 26.7455 182.864 26.7455ZM197.296 29V16.352H192.064V13.6862H205.492V16.352H200.259V29H197.296ZM209.63 27.5821L208 26.2917L211.942 21.3289L208 16.3803L209.63 15.09L214.593 21.3289L209.63 27.5821ZM215.118 27.5821L213.473 26.2917L217.429 21.3289L213.473 16.3803L215.118 15.09L220.081 21.3289L215.118 27.5821Z" fill="#0B0F19"/>
<g clip-path="url(#clip1_903_1473)">
<path d="M18 38V27.3914C18 19.9958 24.2681 14 32 14V24.6086C32 32.0046 25.7319 38 18 38Z" fill="url(#paint0_linear_903_1473)"/>
<path d="M15 31V15.2735C15 6.83807 8.28439 0 0 0V15.7265C0 24.1616 6.71561 31 15 31Z" fill="url(#paint1_linear_903_1473)"/>
<path d="M27.8715 7.46644C28.5053 4.77872 26.8422 2.07763 24.157 1.4334C21.4718 0.789162 18.7812 2.44573 18.1475 5.13345C17.5137 7.82117 19.1768 10.5223 21.862 11.1665C24.5472 11.8107 27.2378 10.1542 27.8715 7.46644Z" fill="url(#paint2_linear_903_1473)"/>
</g>
</g>
<defs>
<linearGradient id="paint0_linear_903_1473" x1="18.0913" y1="19.4468" x2="28.3054" y2="17.6359" gradientUnits="userSpaceOnUse">
<stop stop-color="#6366F1"/>
<stop offset="0.5" stop-color="#8B5CF6"/>
<stop offset="1" stop-color="#D946EF"/>
</linearGradient>
<linearGradient id="paint1_linear_903_1473" x1="14.0172" y1="17.1146" x2="0.735715" y2="10.7384" gradientUnits="userSpaceOnUse">
<stop stop-color="#6366F1"/>
<stop offset="0.5" stop-color="#8B5CF6"/>
<stop offset="1" stop-color="#D946EF"/>
</linearGradient>
<linearGradient id="paint2_linear_903_1473" x1="21.133" y1="14.031" x2="21.7256" y2="2.63804" gradientUnits="userSpaceOnUse">
<stop stop-color="#6366F1"/>
<stop offset="0.5" stop-color="#8B5CF6"/>
<stop offset="1" stop-color="#D946EF"/>
</linearGradient>
<clipPath id="clip0_903_1473">
<rect width="223" height="38" fill="white"/>
</clipPath>
<clipPath id="clip1_903_1473">
<rect width="32" height="38" fill="white"/>
</clipPath>
</defs>
</svg>
